<svg xmlns="http://www.w3.org/2000/svg" width="1608" height="936" viewBox="0 0 1005 585">
  <path fill="none" stroke="#202020" stroke-width=".8" d="M167 203l2-1 1-3-1-5 1-5v1h1l1-2 1-2v3h1l1-3 1-2v3l1-2 1-1-1 3-2 4h1l1-2v1l2 1 2-4v-1h-1v1-2l-1 1 1-3 1-3 1 9-5 7-1 3-1 4v1l-3 1-4 1-1-1-1-2h1zM150 194l-1-1-2 2-3 1-2-3h-3l-2-1-1-1h1l1-2 1-2 2-5 3-4v-5l1 1h7l1-1 1 10-3 11h-1zM159 242l-1 3-2 2v-3l-3 1-1-1 1-1h1l-1-6 1-6v6l1 1h2l1-1v-3l1-3 1 1-1 2v8zM605 448l2-4 3-1-1 13-2 14-1 1-1 1v-3l-1-1-1 2-1 2h3v2l-1 2h-2l-2 3-3 4-12 5-1 3-1 3-7 4-4 1-1 1v-1l-7-2 3-1 5-2-1-1-2-1v-1l-1-1v-1l3 3 4 2 12-13 15-22 3-11z"/>
  <g cursor="help:opacity:1">
    <path fill="#00C160" stroke="#202020" stroke-width=".8" d="M48.3 373l-.5-2.9-2.6 1-3.4-1-1.6-2-1-1-.8 1 .3 1 .5 1 1.8 2 1.6 2h.6l.9-2h1l.7 3-.3 2.9h-2.2l-2.3 3 .2 1 .3 1-1 1h-1.3l.2-1-.4-1-.8 1h-1l-.3 1 1.1 2.9 2 2 2-1 1.3-3h.9l.8-1 1.2-2 2.2-1-.3 2-.4 2h1.6l.5-1 .5-1 .6-1 1.2-1-1-4.9-2.8-3z"/>
  </g>
  <g cursor="help:opacity:1">
    <path fill="#00C160" stroke="#202020" stroke-width=".8" d="M444.1 473.7h-1l-1-1-1-1-1 1h-1l-1-1-1.9-2-3 1-1 2 1 2-2 2-1-1h-2.9l-1-1-1-1-1 2-1 2h-1.9l-1 1-1 1h-6.9l-2 .9h-1v1l-1.9-1-2 1 2 2 2 2v3.9h-3l2 4.9 3 4 1 3 1 2.9 1 1h.9l2 1 1 1 3.9-1 3-1v1l-1 1 4.9 6.8h4l2-1 1-2 4.8 1h3l1-1h1l1 1 2-2.9 1-2-1-2v-1l-1.5-.4-.5-.5 3-2h1.9v-2l-2-1v-3.9h-1l-1-1v-6.9l-2 1-1.9 1-3-1-2-3 1-1 1-1v-2.9l2-1 2-2v-3h-1z"/>
  </g>
  <g cursor="help:opacity:1">
    <path fill="#00C160" stroke="#202020" stroke-width=".8" d="M238.9 339.5l-1-1v-1h-3l-2.9-1-3 1-3 1h-3.9l-4 2-3.9 1-1-1v1l-1 1 1 1v2l-1 2-1 .9h-1.9v1l-1 2-2 3.9-1 3v5.9l1 1 1 1v1l1 1h1l-1 2.9v2l1 2v1h-2l1 2.9 1 3h1l2-2 3 1-2 3-2 1.9 1 1 1 1-2 4.9h1l1 2 1 1h3.9l2 1 1 1 3.9.9 2-4h2l1-2v-.9h1v-2l1.9-2 1-1 3-4.9 2.9-4.9h2l2-1h1l1.9 1v1l1-2 3-3 2-3-5-.9-6 1-1-1v-1H237v-1l-2-6.9v-1h1v-1l1-1 3-1 3 2-1 2v2l2-1 1 1v2h.9l1-1 1-2 2 1h1l1-1h3.9l-1-1-1-1 2-3.9v-3h-1l-3-2-4-2-1-.9h-.9v-3h-4v-1l-1-2.9h-1l-.9-1z"/>
  </g>
  <g cursor="help:opacity:1">
    <path fill="#00C160" stroke="#202020" stroke-width=".8" d="M633.5 428.3h-2l-2-2v-2l-1 1h-5.9l-1-1-1-1-.9 2-3 2h-4.9l-1-1h-1v-1h-1l-2 1-1 2h-.9l-1-1-2 2-3 2 1 4.9h2v2l2 1 1 2h-2v1.9l-2 7.9 1 7.9 3-10.9 2-4 3-.9-1 12.8-2 13.8-1 1-1 1v-3l-1-1-1 2-1 2h3v2l-1 2h-2l-2 3-2.9 3.9-11.8 4.9-1 3-1 3-6.9 3.9-4 1-1 1-2.9 2.9h-4l-1 1h-1v-4l-.9-2-2-1v-1.9l-1-2-6.9-5.9-1 1h-1l-1-2-.9-3-5-2.9-3.9-3-1-3v-1.9l-4.9 4-4 3-1-1h-1v4.9l-1 1v2l1 1v1.9l1 1 2 1 7 3.9 5.9 3h1l1 1 3.9 1 3 1v5.8l5.9 7 8.8 2 8-2 2-1h.9l4 1 3.9 1h3l2.9 1.9 2 2h2l2 1v-4l1.9-3h2l2-2-2-1-2-1.9 1-2 2-2-1-2.9 1-2h3.9l3 1 2-2 2.9-2h3l2 1 1-1 1.9-1.9 2-2 2-1 1.9-1 1-2.9 1-1h1l2 1 1-2 1.9-1 5-1 4.9-3.9-2-6-2-3.9 2-1v-1l5.9-4.9 5-4.9 2-1 1.9-1h2l2-1V447l-5-3.9-3-2v-4l-1-1.9v-1l-1-2v-3l-1-.9-1-1h-.9l2-1-1-2 2-2h1l1-.9-5-1-5 6-4.9 1.9-3.9-1-2 1z"/>
  </g>
  <g cursor="help:opacity:1">
    <path fill="#00C160" stroke="#202020" stroke-width=".8" d="M93.2 417.5l-2-3-3-5-1.6-1-.7-1-1.8 1-2.7 2-1.4-1-1.5 1h.6l-.2 2h-3.4l1.5 1-.5 3h.5l.2 1 .1 1 1.4 1H80l-.3 1-.1.9h3.3l.5 2-.3 2-2.1 1-2.5 1-1.7 2.9-1 2h-3.5l-.4 1-1-1h-2.3l-2 1-1.2 1-1.5 1.9 2 5 2.5 3.9.7 6.9 2.2 5.9h2.4l2.5-1h3.4l2.8-2v-8.8l1-9 5.7-4.9 2.4-1-.4-1h-1.4l.4-2.9.4-3-1.4-4.9 4.1-2z"/>
  </g>
  <g cursor="help:opacity:1">
    <path fill="#00C160" stroke="#202020" stroke-width=".8" d="M69.8 417.5l-.8-1h-1.3l-.3-1H67l-1.6 2-1.1 2 1 1-.8 2.9-1.5 1 3.2 1 3.1-1 .4-1h.2l2-4-2-2z"/>
  </g>
  <g cursor="help:opacity:1">
    <path fill="#00C160" stroke="#202020" stroke-width=".8" d="M60.6 404.6l-.5-1-2.5-1h-5l-3.9 3 2.7 4 1.3 4.9h1l.8 1 2.3-1 2.2-1 .8 1 .5 1 1.1-1h1l.8 1h1.2l1.5-1 1.2-3h1l.7-1h-.5l-1-1-2-2h-2l-2.9-1.9.2-1z"/>
  </g>
  <g cursor="help:opacity:1">
    <path fill="#00C160" stroke="#202020" stroke-width=".8" d="M108.3 374l-1-2h-3v-1.9l-1.4-1-.7 2-1.3 2-3.7-2-4.8 2-.6 1 1.7 1h3L95 378l-2.8 2-.2 1-.2 1h-5l-.8 2-1 .9h-.5l-.5-1-1.5 1-1.7-1-3-6.9-4.3-3-2.7 1-3.5 1 .6 1h1v1l.1 1 1.2-1h1.3l.3 1-.6 1h5.9l.9 3 .8 1.9 1.5 2 1.2 2-.3 2-.4 2.9.6 2 1.3 2 2.3 4.9.8 4.9.7 1 1.6 1 3 4.9 2 3h1l.8 1 .8-1h.6l3-2 3.3-1 .7-1h1v-1l-.7-1-.7-1h-1.6l-.4-1h-.4l.9-2.9 3.3-1-.7-1-1-1 .4-1 .4-1-1-1-.2-.9h3.6l3.6-1 .4-4 .5-4.9 2.1-1h1.7l-2-2H110l-1-1.9-.3-3 .9-2 1.3-1-.8-.9-1.2-1-.6-3z"/>
  </g>
  <g cursor="help:opacity:1">
    <path fill="#00C160" stroke="#202020" stroke-width=".8" d="M56.2 392.8l-1.6-2H53l.1 1-3.5 2-1.6-2-1.6-3-3.3 2-3.3 2 3.5 6.9 5.4 6 3.9-3h2.7l1.2-2 .8-1h-1.1l-.4-1 1.7-1h2.2l.5-1-1.3-1h-1.4l-1.3-3z"/>
  </g>
  <g cursor="help:opacity:1">
    <path fill="#00C160" stroke="#202020" stroke-width=".8" d="M203.4 127.4l-4-5-3 7-3.9 5h-3l-2.9 1.9h-1v1l-1 1-3 1-.9 3 1 .9-1 1-3 3-1 3.9-2.9 1h-3l-1 6.9-1 7.9-12.8 2-13.8 1v2l2 2.9v-1l1 1h6.9l1-1 1 9.8-3 10.9h6l1 1h1.9l-1-2v-1h1l2 2 2 2h2l.9 1 1 4 1 .9 1-3-1-4.9 1-5v1h1l1-2 1-1.9v3h.9l1-3 1-2v3l1-2 1-1-1 3-2 4h1l1-2v1l2 1 1.9-4v-1h-1v1-2l-1 1 1-3 1-3 1 9-5 6.9-1 3-1 3.9h2l2 2 3 3 1-1 1-1h1v1l2-3 .9-3v-1l2-2 2-2-2-2.9-1-4 2-2 1-1.9 1-3 1-2.9 1 1 .9 1 2-1 2-2v-2l1-2v-2.9h-2v-5l1-1 3.9-4.8 1-2 1-3h1l1 1 1.9-2 1-1v1h1l1-5.9-2-5.9h3l-1-2-1-2 1-1h-1l-1-1-3 1-1-2.9 1-3-4-4.9z"/>
  </g>
  <g cursor="help:opacity:1">
    <path fill="#00C160" stroke="#202020" stroke-width=".8" d="M309 213.2l-6-4.9-5-4h-3.9l-1-1-1 1-1.9 1-7.9-1h-6.9l-3 4-3 4-.9 3h2l1 .9-1 3-1 3 1 1.9v1l-1 1-1 1-1-1-2-2h-1l-1 1-1-1v-1h-2.9l-1-1-2 1-1-1v-2l-6.8-4.9-7-3v5l2 4v4.9l-2 3v1.9l1 2-2.9 1h-2l-3 4-1 3.9 1 1h2l1 1h2v-1l1-2 3-1 1 1 1-1h.9l1 2 1 2-4 3.9-5 4-.9 2.9-1 2-5.9 2h-2l-2 1-3 4.8v3l-3.9 1-2 3 2 2 1 1.9v2l1 3-1 1v1.9l3-2 2-2h2v-1l3.9 2 3 1 3.9-1h3v1l2-1-1-3 2-4.9 5.8 2h2l2 2-1 2 3 2 1.7-1 2.2 2.9 2 1h2l2.9-1 1 1v1h2l1-1h1l1 1 1.9-1h3l5.9 5 9.8.9v-1l2-1 1-2 1-2.9h2l1-2h-1v-1l2-4.9 1.9-4 4-3.9 3.9-4 1-5.9 1-1 2-1 1-1h1l1.9-.9h2v1l1 2 2-1 1.9-1 2-1v-1l3-1 1.9-1h3l2 1 2.9-3 3-1v-.9l2-2h2.9l4-1h3.9l1-1 1-2 4.9-1.9 4-3-1-3-2-2.9 1-4h1l1-1-2-.9h-2l-1 1-2 1-2 1-2 1-2 1h-.9l-1-1-1 2v1l-6.9 1.9-5.9 1-1-1-1-1-29.6-17.8z"/>
  </g>
  <g cursor="help:opacity:1">
    <path fill="#00C160" stroke="#202020" stroke-width=".8" d="M4.7 336.1l2.6-3.7-2-5-2-1.2-.2-1.3 4.6.2 4.7 1 3.2 2.7-.6-3.9 2.5 2.9.3 1.3 3 2.7 1.4 3.7-1.1 3-.6 5.5 1.9.5 1.4-.2.4 1.7 1.8.4 2.4 3.2h-3l-1 1.8-4.1-3.4-1-2.3-2.2-.2-4.7-1.9-3.1-1-4.2.2-.4-6.7z"/>
  </g>
  <g cursor="help:opacity:1">
    <path fill="#00C160" stroke="#202020" stroke-width=".8" d="M201.4 302v-1l-2-1-1-1h-2l-.9-1h-4l-1-1.9-1-1-.9-1-3-2-3-1-1 1-.9 1-1-1h-1l-1 2 1 2h-1l-1 2 1 1-1 2h3l1 1 5 1 1 2.9v1l1 1v2l.9 2.9h2l2-1h2.9v-1h4l3 2 1.9-1 1-1 1-1-1-1v-4h-1l-1-.9 1-2v-1h-2l-1 1z"/>
  </g>
  <g cursor="help:opacity:1">
    <path fill="#00C160" stroke="#202020" stroke-width=".8" d="M166.9 307l-3 1-2 1h-1v-1l-1.9 1-2 1-2-4-2-7-1.9-1h-2l-1-.9-2-2v3l-1.9 1-1 1h-2l-2 1h2l1 2h-2l-1-1-.8 1.9h-1.1l1 3 3 2 1-1 1-1 1.9 4 3 5.8h2l1.9-2 3 3 3.9 2h4l2 1 3.9-6 1-3.9h-1v-1h-1l-1-1 1-1-1-1z"/>
  </g>
  <g cursor="help:opacity:1">
    <path fill="#00C160" stroke="#202020" stroke-width=".8" d="M605.9 176.7h-2v3h-1l1 2 3 2 2-1 1-2-4-4zM708.5 164l-2-3-3-1 2 2 3 2zm-9.9-22.7v-4l-1-.9-2 1 2 3v2l1-1zm24.7 9.9l1 4 1 1h2v-4l-4-1zm16.8 11.8l2-4v-.9l-1-1-5-3h-5l-1.9 3v4l-1 2-1 1-1 .9h2l2-1 2-1h3l4.9-1v1zm-7-37.5l1-1-4.9-1-4-1-1 1-1.9 1-4-2-3-.9v1l1 1h-1l-.9 1v1l1 2v.9l1 1-3-1-3-1-2-1h-.9l-1-1v-1l-1 1-1 2-1 2-1 1-1 1 1 1v3l-1 1.9h1l1 1v2l1 2 2 1.9 3 1 1 2 1 1h4.9v-6l1 1 1 1 1-1 1-1 3.9-3h4l.9-1 1-1 1-.9-2-1h-2l-4-3-1.9-3.9 3-3v1l5.9 8 3-4-1-4 1-1zm23.7-5.9l-1 1-3-1-2.9 1v1l-1 1-2-1v-1H744l-2 1v2l-1 1-2-2v-1l-1 2 1 4 4 .9 5 1 5.9-2 4-4v-1.9l-1-2zM822 155l-15.8 9.9-4.9 6-4 1.9-3.9-2-4-2h-4.9l-3.9-1v1l-1 1h-2l-1-1 1-2 2-1-2-1.9-3-2-3.9 1-3 1-3.9 8-4 6.8h-.9v-2l-1-1 2-1 1-1-1-.9v-2l2-1 1-2-2 1-5 3-1 1-1 1-1-2 3-3h1l3-2 3-1-11 1-10.8 4h-4.9l-2 1 1 1 2 1-1 3-3 1-2 4.9 1 1 2-1v2l1 1 1 1.9v2l2 1v2h-2v1.9l-1-1-1-1h-1l-1 1h-2v6l-3.9-2-6.9-1-3 4-3.9 2.9-4-1-2.9-2-1-2 2-1-2-1-1 9-1 10.8-1 1-.9-1-1-1v1h-2l-1-1v-1h-2.9l-2-3-2-2.9h-1l-1-1 1-1 1-1-1-2-2-1 1 1v1l-1 1-1.9-2-1-1.9-4.9-3-2-1h3l2 2 2 2h2.9l2-2-1-3-2-1.9v-4l-1-2v-1l-2-1.9h-2l-5.8-5-2 1-2 1h-5l-2.9-2-4-.9v1l-1 1-1.9 5 1 3.9v3.9l-2-1h-3v1h-2l-1.9 1-1 1-3-1-1.9-1h-6l-1.9-1v-2l2-2-1-1h-7.9l-2-1-1 1h-1l-2-1h-1.9l-1 1-1 1-2 1-2.9 1v3l-2-2 1-2-1-3-2-1.9v3l-1 1H605l-3-2-1 1-1 3-1.9 2 1 .9h1v3l1 1-1 3.9 1 4 1 1v2.9l1 1 2 1 1.9 2 1 3.9v4l2 3.9 1 3v1l-4 2.9-4 3-1 2.9v2l-1 1-2 1v3.9l-1.9 3h-2l-3-1-2.9 1-2 2h-2l-1.9-1v1h-1l-1 1.9v1l1 4 2 2.9v13.8l-1 10.8-3 2-2 2 1 1 1 1v6.9l1 2v4.9l1 2 2 2 2 1.9-1 2-1 1-2 3v2.9l-2 3 2 3.9h2l1 1 1 1 4 1h6.9l.9 1.9 1 3-1 1-2 3 3 1.9 3 2 1 6.9v4.9l2.4 2.7 1.5 2.2-1.5 2.5-1.5 1.5 1 5 3 2.9-2 4.9-2 6v3.9l-1 1-1 4.9 1 4h2l5-1 1-2 2.9 1h1v-1h1l1 1 1-1h2.9l1-1 2-2v1l2 2 1 1-1 3 4.9-5 3.9-6h2l1-2 1-2.9 2-1h1.9l3-3h3.9l3 1 2 2 1.9 1v2l1 1v2h5l4.9 1 1 1v2l1 1.9v3l1 2 .9.9v1l1 2v5.9l2 4 1-1h1l1 3.9 2.9 4 4-2 3.9-1 2 1 2 1 1.9 1h4l1.9 1 1 .9h6l4.8 1 2 2 2 2 5 1 2.9-1h3l2 1h1.9l3-2 2-1h1.9l1 1 1-1v-2h4l.9-1 2 1 3 1 1-1v-1l1.9-2 2-1v-1l1-1h3l1.9-2 1-4.8v-4l2-1 1-1v-2l-1-2-2-.9-1-1h-2l1-2 2-1v-2.9l1-1 1-1-3-2-2-2.9h3l-1-4 1-3 1-5.8 1-2 2-2h1.9l5-2 4.9-2 1-.9v-2l1-2h1l.9 1h1l2-1 4.9-3 1-3.9v-1l1-1 2 2 1-1-1-2.9-1-2-2-4-1-4.9-2-3 1-3.9v-1l1-1v-1l1-.9v-2l2-1 1-1v-5.9l1-5.9h3.9l4.9 2h2l1-1 1 1 1 1 2-3 1.9-2h2v1l1-1 1-1 1 1 1.9 2 1-3V300l1-2v-1.9l-1-1 1-2v-1l-2-2-3-1.9-1-8.9 1-4 1-2.9h2l2-1 1-1 1-1 1 1 .9-1 1-2.9-2-3 2-1h2l2-1.9 1-2 3.9 2 3 1 1-2v-1l1.9-1 1-1 1-2 2-2.9h1v-2h-1v-1l1-2-1-.9-3-2v-5l2-2.9-2-1v-3l1-1.9 1-2-1-2v-2h3v-1.9l3.9-1 3-1 1-1 .9-1 2 1h1l1-2 1-2.9 1.9-1v-2l-2-2.9-2-4 1-1v-1l-5.9-1.9-5.9-4v-1.9l1-2-1-1-1-1 5-6.8 6.8-8 1-1 2-1-1-1.9-2-3v-2l-2-.9h-.9l-1-2-1-1h-1l-1-1-1-2-1 2v2h-.9v-1h-1v5l-1-2-2-2-3 1h-3.9l-1-3-2-3.9-10.8-3zm-96.6 41.5l2 1 1.9-1v-1l-1-1-2 1-1 1z"/>
  </g>
  <g cursor="help:opacity:1">
    <path fill="#00C160" stroke="#202020" stroke-width=".8" d="M65.9 414.5l-1.5 1h-1.2l-.8-1h-1l-1 1-.6-1-.8-1-2.2 1-2.3 1-.9-1h-.9l1.5 5 .1 1.9 2.9 1 3.4 1h3.8l.9-3-1-1 1-2 1.7-2h.4l.3 1H70l-.4-2.9-2.4-2-1.2 2v1z"/>
  </g>
  <g cursor="help:opacity:1">
    <path fill="#00C160" stroke="#202020" stroke-width=".8" d="M204.4 311.9l-2 1-3-2h-3.9v1h-3l-2 1-1-1h-1l-1.9 1h-1v1l-4.9 1v1l1 1-1 2.9h-4l-1-1h-1l-.9 1v2l4 1 1 2 1.9 1.9h5l1 2v3l1.9 2.9 2 3 2 2 2-1h1.9l2 1.9 1 2v2h1l2 2 1.9 2.9h1v1l-1 1v2l2 1.9 2-4 1-2v-1h.9-1 2l1-.9 1-2v-3h-1 1l-1-1v1-1 1l1-1v-.9l1 1 3.9-1 4-2-1-2-2-2h-1l-1-1.9h3l3-2-2-1-1 1v-4h1l-2-.9-2 1 1 1v1l-2 1-1-1h-1v-1h-3l-1.9-2-1-1h-1l2-1 1-1h-1l-2-1-1-2.9h1v-1h-1v-2l1-3-3-1z"/>
  </g>
  <g cursor="help:opacity:1">
    <path fill="#00C160" stroke="#202020" stroke-width=".8" d="M513.2 466.8h-2l-5 2-3-1-.9 1h-2v-1h-1l-1 1h-2.9l-1 2-1 2.9-2 1-2 1-4.9 6.9-6.9 4-6.9-1-5.9-2-1-2-2-1-2.9 1-3 1v4.9h-4l-3.9-1v7l1 .9h1v4l2 1v1.9h-2l-3 2 1 1h1v1l1 2 4-1h4v-2l.9-2 5 1 1.9-1 2-1h4v-1l1-1h.9v1h1v1h1l2-1v2l1 2h3.9l5 1 .9 3 1 3.9 4 1 3.9 1h1l1-1 4.9 2h2l3 .9.9 1 1 1 6.9-4 1-3 1-2.9h-1l-1-2v-3l-1-1 2-4.8 3-4h1l.9-1 2-2 1-2v-1.9l-1-1v-2l1-1v-4.9h1v-2l-1-1h-4l-5-3.9-4.9-5v1z"/>
  </g>
  <g cursor="help:opacity:1">
    <path fill="#00C160" stroke="#202020" stroke-width=".8" d="M239.9 306h-2l-1-1v-1l-1-1h-2l-1.9-1-2-2-4 2-1.9 6-2 1h-2l-1-1h-1.9l-2 3-1 3.9-1 1h-2l-.9 3.9-1 3 1 1h-1l-2 1 1 .9h1l2 2h3v1h1l1 1 1.9-1v-1l-1-1 2-1 2 1h-1v4l1-1 2 1-3 2h-3l1 1.9h1l2 2 1 2 2 1 1.9-1 3-1 2.9-1-1-2-1-3h-1l-1 1v-5l1-1h1l1-.9v-1l1 1 1-1 4-8.9 2.9-8.8v-1z"/>
  </g>
  <g cursor="help:opacity:1">
    <path fill="#00C160" stroke="#202020" stroke-width=".8" d="M466.8 444l-2-1.9-2 1h-3l-2.9-3-3-3-1 1v5l-1 3-.9 4h3l2 1.9-1 1-1 1 1 2-1 1.9h-1l-2 2v2l1 2.9-1 2 1 2 1 3-4 2.9-4 2-1.9 2-2 .9v3l-1 1-1 1 2 2.9 3 1 2-1 2-1 3.9 1h4v-5l2.9-1 3-1 1-2.9 2-2 .9-1h2l2-3.9v-1l2-1 1.9-2v-1l-1-.9-1-1v-1l-1-1 2-4.9-2-5.9-1-6-3-1z"/>
  </g>
  <g cursor="help:opacity:1">
    <path fill="#00C160" stroke="#202020" stroke-width=".8" d="M74 415.5l-.4-1-1.5 1-2.2 1H69l.8 1 2.2 2-2 3.9h-.2l-.5 1-3.1 1-2.8-1-.4-1h-2.4l.3 1-.2 1h1.4l1.6 2 .5 1.9.2 1 1 1 1.2 2 2-1h2.2l1 1 .5-1h3.5l1-2 1.7-3 2.5-1 2.1-1 .3-2-.5-1.9h-3.3v-1l.4-1h-1.3l-1.4-1v-1l-.3-1h-2.3l-.7-1z"/>
  </g>
  <g cursor="help:opacity:1">
    <path fill="#00C160" stroke="#202020" stroke-width=".8" d="M180.7 302l-1-1h-3l-1 1-2 1v3l1 2h-2.9l-2 1v1h-1v1h1l-1 3.9 2 3 3 1.9 1-1h1l1 1h3.9l1-3-1-1v-1l5-1v-1h2.9l-1-2.9v-2l-1-1v-1l-1-2.9-4.9-1z"/>
  </g>
  <g cursor="help:opacity:1">
    <path fill="#FF8F3A" stroke="#202020" stroke-width=".8" d="M417.5 445h-4v2h-1l-1-2-4.9 3-3 3-3.9-6 1-1-1-.9h-1v-2l-1-1-1-3v-.9l-5.9 2-6.9 3-1 1h-3l-2.9-1h-2l-1 1-1-2h-1l-.9 1-2 1.9 7 35.5 3.9-1v-2h2v-1l1-1 2 5 1.9 4 4 1 1.9 1h4v-1h3l.9-1 4 3 2 3.9h2.9v-4l-2-2-2-2 2-1 2 1v-1h1l2-.9h6.9l1-1 1-1h1.9l1-2 1-2 1 1 1 1h2.9l1 1 2-2-1-1.9 1-2 2.9-1v-3l-1-1.9 1-1v-1l-1-1 1-2 1-1-1-.9-2-1-1-2v-3l-1-.9-1-1-1-1v-2h-.9l-2-1v-2l-2-1.9-3 2-.9 1h-2l-2-1v1z"/>
  </g>
  <g cursor="help:opacity:1">
    <path fill="#FF8F3A" stroke="#202020" stroke-width=".8" d="M666 401.7l-2.9-1-2 2 2 2-1 1h-1v2.9h-1v1l1 6.9h2v5.9h-1l-1-1-2 2-1 1-1.9-1h-4l-2 1v2l-.9 1h1l1 .9 1 1v2l-1 1h1l1 2v1l1 1.9-1 1 1 3 2.9 1.9 5 4v7.8h-2l-3 1h-1l-2 1-5 5-5.8 4.9-1 1-1 1 2 3.9 2 6-5 3.9-5.9 1-1 1-2 1.9-1-1h-1l-1 2-1 2-1.9 1-3 1-1 2-1.9 1.9-1 1-2-1h-3l-2.9 2-2 2h-1l-2-1H602l-1 2 1 2.9v1l-2 1-1.9 2 3 1.9 2 2-2 1h-2l-2 3v3.9l2 2 4 3.9 6.8 1 7 1h1l1-1 .9 1h2l2-1 2.9-2 7-2 6.8-2 2-3.9 6.9-6 5 1 3.9 2h4l5.8-1 5 3 6.9 1 2-3 3-3 2.9-1.9 2-2v-2h-1v-1l2-7.8 1.9-8.9 3-4 2-3.9-1-1-1-1v-2l-1-1-3 1-1-2.9 1-2 3-3v-1l1-.9 4-2 4.8-3-2-2.9-2.9-3 1-2V449l1-1 1-1-3-2h-1l-1-1 2-4.8-2-5-2 1h-1l-1-3-1.9-3-3 1-2 1v1h-.9l-2-2v-1.9h1l1-1-2-1-2-1-1-1v-2h-2l1-3.9-2.9-4-1-3.9h-1l-1 1-2-4v-5.9l-3.9 1-2-1z"/>
  </g>
  <g cursor="help:opacity:1">
    <path fill="#FF8F3A" stroke="#202020" stroke-width=".8" d="M982.8 296.8l2.6-.8 2.3 1.4 5.1-.6-1.7-1.7-2.2.7-3.4-1.1.5-1.5-2.8 1.9-.4 1.7zm13.1-5.3l2.6.1.9-.6 2.6-.2-.2-.5-6.1.6.2.6zm-45.7-26h-2v11.9h1v-3l1-2v-2l1-1 1-1.9-2-2zm4-62.1l-1 1v3h-2l-1 1-1 .9-3-1-4-1h-3.9l-3.9 1-1-6-1-4.8h-4.9l-1-1h-2l-3 1-2.9 1v-1h-3l-2 1-.9 1-2 2-2 .9h-1l-3.9 1v1l-1 1h-2l-2 1-.9 1-2 1.9 1 2 1 1 2 3.9v4l2 3 3 2.9v2l.9 2v2.9l3 2 3.9 2v3.9l1 1h1v3l1 .9 1 2h1l1-1v-1l.9 1h2v-3h-3l-2-4V238l-1-1-1-3 3-2 1-2.9h5l-2 2-1 4 2 2.9 2 3v2l1 2h1.9l1 2.9v2l1 1 1 1-1 1.9-2 2v3l-1 1-1 1.9v3l1 1-1 5.8v5l-1 1v1l-1 3.9v4l1 1 1 1v.9l-1 1v5.9l-1 4-1 3.9-1 2-1 1v3l-1.9.9-2 1 2 1 2 3v5.8l-1 5 2 5.9 3 6 13.7 18.7 17.8 17.7 3 5 4 3.9 2.9 2 1-5V376l1-1 1-3-1-8.8-2-2h-1v-2l-1-2h-1l-1-1 1-1 2 1 3-6.8 2-1h.9v-1l-5-4-2-5.9v-4.9l3-5h1l1 1 2-3.9v-3l-3-2-3-1.9-2.9-6.9 1-7v-.9l-1-1 1-2 1 1v3h2l1-3-5-4v-.9l-1 1-1 1-3-3-1.9-3v-2.9l-1-3h-4.9l-1 1 1 1-2 1-2-1-3-8.9v-5.9l-.9-1h1v-1h-1v-3l-1-.9h-1l-1-5 2-3.9 1-1-1-1h3l2 1 1-3-2-1v-.9l2-4 1-3.9 1 1 3.9 6v-7l1-5 2.9-5.8 4-2 4.9-2 4 2h2.9l-1-3-2-3 1-2 1-2.9v-4.9l1-1-1-2h-1l1-1h1l-1-1-1-1h1l1-2.9-1-1h-1l1-1 1-1v-2.9h-1v-2h1l1-2v-2l1-.9-1-1v-1h-2l-2 1-2-2-1-1-9.8 11.9-2 1z"/>
  </g>
  <g cursor="help:opacity:1">
    <path fill="#FF8F3A" stroke="#202020" stroke-width=".8" d="M61.5 357.3l-4.4-2-3-1 .4-1 1.3-1-.4-1 .2-1-1-1H53v1l-.3 1-1-1-.4-1-1.4-.9h-1.3l-.6-1-.7-1v6l.3 4.9-.5-1h-.5v-3l-1.4 1-1.3 1v-1h.4l-.7-1-1.9 1-1.8 1H38l-1.3 1H35l-2.7-2-1.6-3-.3 2 .2 1-1.7-1h-1.4l1.2 2 1 4-.7 2 .2 1.9.7 1H31l.1 3v2l2 5.8.6 7 .2 7.8h3.3l1.2 2 .8 1h.7l3.2-2 3.3-1 1.6 2 1.6 2 3.5-2v-1h1.5v-4h.4l.4 1 1.6-1 1.5-1.9-.8-1 .6-2-1-3 .9-2.9 1.3-2 1.4 1 1.8 1 .5-1 .5-2 .5-1-.1-1.9h.6l.5-1h-1.7l-2.3-4 .5-1 .4-.9-.4-1-.2-1h.7l.9-1-.4-2-1.2-1zM47.8 370l.5 3 2.8 3 1 4.9-1.2 1-.6 1-.5 1-.5.9h-1.6l.4-2 .3-2-2.2 1-1.2 2-.8 1h-1l-1.2 2-2 2-2-2-1.1-3 .4-1 1-1h.7l.4 1-.2 1h1.3l1-1-.3-1-.2-2 2.3-2h2.2l.3-2.9-.6-3H44l-1 2h-.5l-1.6-2-1.8-1.9-.5-1-.3-1 .8-1 1 1 1.6 2 3.4 1 2.6-1z"/>
  </g>
  <g cursor="help:opacity:1">
    <path fill="#FF8F3A" stroke="#202020" stroke-width=".8" d="M455 186.6l1 2h2.9v-6l-4 4zm23.6-33.5h1v1l1 1 1-4-1-1v1l-2 2zm6-74.3v-1l-1-.6-3-1.3 2 1.6v1.4l2-.1zm16.7-22.6l-3-.8-2 .9 1 1h1l2 .6 1-1.7zm100.6 87l1 1v1l2 1-1-3-1-1-1 1zm-64-7.9h2.9l2-3h-2l-1 1-1 1-1 1zm-1-49.4l1-2.9-2-2-3-1-1-.4-2 1.2v2.5l2 .8 1 .8v2l4-1zm21.6 1.5l-3-5.3-2.9 2.2-2 3.3-1 1.1-1 .6 1-1.2 1-1.1v-.5l-1 .5-2 .8-.9-.2 4-2.3 1-3.8-3-1-4 .4-1 .2v.4h-1l-1 .4-2 1.8 1 1.2v1.2l-1 .2h-.9l-1 1.3-1 1.4-1 .4V91l1 .3v-1.6l1-.3v2.5l1-.1 1 .4-1 1.9v2l1 .5v2.2l1 1.1h1l1-1v2h3l1.9 2 2 2 3.9 1 4-3-1-2v-2l-1-1.9 1-.2 1-4.6 1-4.7zm21.7 27.2h-1v1l-1 1h1l1-2zm1 4h2l1-1-1-1h-2l-1 1v1h1zm-16.7-20.3V96l-1 .4-1 1-1 2.5v2l1 1h-1l-1 1v2.9h-1v-1l-1 2-1 2v3l-2 2.9-1 3 2 2 3-2 2-2h4l5.9-2 3-1 1-3v-3l-1-1.9h-1v1h-1v-3l-1-1-1-1v-2l-2 2-2 3v1h-1v-1l3-8.2-2-1-1-.1V97l-1 1.2zm41.4 51.8v1l-1-2v-2l-1-1h-2l-2-2.9-2-3-.9 1-1-1h-1v1h-4.9l-2 1-1-1h-1l-1 1-1.9 4h-3l2-5v-4h-5.9l1-1v-.9l-3 1-2-1 2-1 2-2 1-1h1l1-1-2-1.9-3-1-1-1v-1h-2l-2 1h-.9l-6 7-3.9 6.8 1 1v3l-5.9 2-1-1h-2v1l2 3 1 1.9h-2l-1-2-2 1h-1v1l-.9 1h-1v1h-3l-1 1h-1.9 1v-1l-1-1-2 1-1 1 1-2 1-1-6-2-5.8 1-1 1 2 1h2v1l-2 1h-2l-4 1-3 1h-5.9l-2 1-3.9 1.9-2 2h-5.9l1 1 2 1-1 1-2 .9-1 2v2l-2-2-2.9-1v1l3 3 2 2-1 .9-1-1-1-1-1 1h-2l2 2 3 3-1 1v5.9h-1l-2 1h-1l1-1 1-1 1-1v-1l-4-1-2.9 1h-5l-5.9-1-5.9-1h-3l-1.9-1v1l-1 2-1 1 1 1v1h-1v2l1 1-1 2.9-1 2v2l-1 .9 3 3 3 2v5.9l3 2 1 3.9-2 3-2 2.9 1 2-1 8.8-2 1-2 1 3 7 1 3.9h-1v-1l-2-1-1-1v-4l-1-2-1-.9 4-9.9-1-2-2-1 1-1v-1.9l3-2 3-3.9-3-2-5-1-1-3-1-2.9-2.9-4-3-2.9H452l1 2 1 2 2 2 2 2v2.9l-2 2-1 1v-1h-2v3.9l2 2 2 2v4.9l-1 4.9h-2l-2-1-2 2-3.6 1.8-1.3 1.1v1l-2 1v3l1 2 1 3 3 1.9 2 2v1h1l1.9-1 2-2 1 1v1l1 1 1 1-1 5.8-1 6-2 4.9-4 2v4l1 1.9v-1 1l-2 2v1l1 2 1 1.9 1 5-1 3.9v6.9l1 3 3 1v6.9l-1 1.9h-1l1 3h2l1 2 1.9 1 2-1 1 2.9-1 6-4 5.8h-2l-1 1v2l1 1 2 1-1 2-1 1v1l-1 1.9-2.9 4-5 3.9 1 6.9 4 2 1 2-6 3.9-7.8 2V372l4 2 3.9-1 3 1 3.9 1 2 1v.9l1 1h1l1.9 2v3l1 1.9 3 1 2 3-2 1-3 1.9-1 3v3l4 3.9 2.9 4.9-1 1h-1v2l-1 1h-2l-1.9 3.9-1 2v2l1 1h-1l-1 1.9 1 1 1 1 1 8.8v1l-3 1-3 3 3 3 3 2.9h3l2-1 1.9 2 3 1 1 5.9 2 6-2 4.8 1 1v1l1 1 .9 1v1l-2 2-2 1v1l-2 3.9h-1.9l-1 1-2 2-1 2.9 2 1 1 2 6 2 6.8.9 7-4 4.9-6.9 2-1 2-1 1-2.9.9-2h3l1-1h1v1h1.9l1-1 3 1 4.9-2-2-2.9-2-3-2-1-1-1V457l3-2 3-1h1l1-3V446l1-1 1-1v-4.9l3.9-3.9 3-2h1l1-1-1-1v-4.9l-1-2-2-1 2-4.9 2.9-4.9 3 1h3l1.9 1h4l1-4 1-1h1.9v1l2 7 3.9 2v-5h-1l4-8 7.9-4.9v-1l1-2 2.9-1.9h2l1 1v3l2 1h2l-1 1v1h1.9l1 .9 1 1h1l2-3v-1l1.9-2 1-2.9-2-3-2-2 1-.9 1-1v-1h3v-4l-2-1.9-3-1-2-7.9 1-5v-.9l2-1 1-1 5-4 3.9-4.8v-2l-1-1 1-2 1-1-1-3-1-2.9 1-4 3-4.9-1-1 2-1 1 1 .9 1 1-1 1-1 2-1h1v-3.9h-4l-4-1-1-1-1-1h-1.9l-2-3.9 2-3v-2.9l2-3 1-1 1-1.9-2-2-2-2-1-2V301l-1-2v-6.9l-1-1-1-1 2-1.9 3-2 1-10.8v-13.8l-2-3-1-4v-1l1-1.9h1v-1l2 1h2l2-2 2.9-1 3 1h1.9l2-3v-3.9l2-1 1-1V239l1-3 3.9-3 4-2.9v-1l-1-3-2-3.9v-4l-1-3.9-2-2-2-1-1-1v-2.9l-1-1-1-3.9 1-4-1-1v-2.9h-1l-1-1 2-2 1-3 1-1v-1.9l1-1-2 1-1 1-2-1-2.9 2v3h2l3-1v1l-1 1h-1l-2 2.9-2 1-1-1-1 2-2 1v3l-1.9-1-1-1v1h-6.9l-1 2.9-3 3h-.9l1-2 2-2v-2l1-2 2.9-1 1-2.9-1-1-2-1h-1l6 1 4-4h.9l1-1.9 1-2 2-2 2-2 .9-2.9 6-4v-.9l.9-1 2-3 3-3 1-4.8-2-1-1-2v1l-1 1v-3h1l2 1v2l1-2v-5h-2v-2.9l-2-2v2zm-72-75l-1 .1-1 .6 1 .4 1 .3 1 .9 1 1h-2v.7l1 .2h1l1 1.2 1 .6 1.9-.7 1-1 7.9-1 1-.4v-5.3l2-1.2 1-1.2v-1l-1-1.2V68l-1-.5-2-4.6-1-3.6-2-.1v1.3l-5 2.8-3.9 3.2V68l1 .4v1l-1 .9v1l-1 1.2-1 .5-1 .5v.7l1 .7v.3h-1V75zm-2-16.6l-1 1.2v1h1l2 .8 2-2.5-4-.5zm7.9 89.6l-2-1 1 2 2 1v-2h-1z"/>
  </g>
  <g cursor="help:opacity:1">
    <path fill="#FF8F3A" stroke="#202020" stroke-width=".8" d="M263.6 283.3l-2-1-2.2-2.8-1.8.8-1.6-1-1.3-1 1-2-2-1.9h-2l-5.9-2-2 5 1 3-2 1 4 4.8 4 2-3 4-5 3v2.9l2 2-1 1-1 2.9-3 2v1l-2.9 8.8-4 9-.9.9-1-1v1l-1 1h-1l-1 1v5l1-1h1l1 2.9 1 2 3 1h3v1l.9 1 1 .9h1l1 3v1h4l1.9-2 1-3v-1h2l4.9-1 2-3 2-1.9 1.9 2h3v-2l1-3 4.9-1 3-2.9v-4l1.9-2.9-2-5 3-2.9 2-1 2-1 4.9-4.9 4.9-5v-1.9l2-4 3-3.9-10-1-5.8-5h-3l-2 1-1-1h-1l-1 1h-2v-1l-.9-.9-3 1H263.6z"/>
  </g>
  <g cursor="help:opacity:1">
    <path fill="#FF8F3A" stroke="#202020" stroke-width=".8" d="M857.4 494.4h-3l-1.9-1v-2l1-2-1.3-1.3-2.6-2.6v-1l-3 2-3 3h-2v1l1 1 1 1v1l1 .9h4l-2 6-4 1.9v4l-3.9 2.9-5 2-1-1-.9-1-1 1-1 1v-2l-1-1-1 1-1-1h-1l-1.9 3-1 3v1.9l-2 2v10.8l-1 2 1 2-1 1-1 2 1 2.9-2 2h-7.8l-3 1-1 3.9-2 1-1 1 1 2 1 2 3 5.8 1 6 1 1v1l-1 6.8-3 1-1 2h1l1 1 1 2 1 2 1-2v-1l-1-1-1-1h5v-2l1-4 2-2.9-1-1 1-1h.9v3l1-1 1-1 1-1v-1l1 3v2h1v-1h1l.9 1 1-1 2 1 1 1v-2l1 1 2-1 1.9-2 5.9-5.9 4-6.9 1-1v-2h1v-3.9l1-3v-2l1.9-2 1-4.8 2-6 2-5.9 1.9-5 1-4.8 1-6v-4.9l1-4v-2.9z"/>
  </g>
  <g cursor="help:opacity:1">
    <path fill="#FF8F3A" stroke="#202020" stroke-width=".8" d="M74 380h-2.7l.6-1-.3-1h-1.3l-1.2 1-.2-1 .1-1h-1l-.6-1-1.7-2-2-1-.5 2-.5 1-1.8-1-1.4-1-1.3 2-.8 3 .9 3-.6 2 .8.9-1.5 2-1.6 1-.4-1h-.5l.1 4 1.6 1.9 1.3 3h1.4l1.2 1-.3 1H57.5l-1.7 1 .4.9h1l-.7 1-1.2 2h2.3l2.5 1 .5 1-.2 1 2.8 1.9h2.2l1.9 2 1 1h.5l-.8 1h-1l2.5 1.9.4 3 2.2-1 1.5-1 .4 1 .7 1h1.8l.5-3-1.5-1H79l.2-2h-.6l1.5-1 1.4 1 2.7-2 1.8-1-.8-4.8-2.3-5-1.3-2-.6-2 .4-1.9.3-3-1.2-2-1.5-2-.8-1.9-.9-3h-3.1z"/>
  </g>
  <g cursor="help:opacity:1">
    <path fill="#FF8F3A" stroke="#202020" stroke-width=".8" d="M818 310l-2-2-1-1-1 1-1 1-1-1h-1.9l-1 2-2 2.9-1-1-1-1-1 1h-1.9l-5-2h-3.9l-1 6v5.9l-1 1-2 1v2l-.9.9-1 1v2l-1 3.9 2 3 1 4.9 1 4 2 2 1 2.9-1 1-2-2-1 1-1 1-1 3.9-4 3-2 1h-.9l-2-1-1 1v2.9l-1 1-4.9 2-4.9 2h-2l-2 2-1 1.9-1 5.9-1 3 1 3.9h-2.9l2 3 3 2-1 1-1 1v2.9l-2 1-1 2h2l1 1 2 .9 1 2v2l-1 1h-2v4.9l-1 4.9 4 1 2.9-2 1 1h1l2-1 1-1 1.9 1 1 1h2l-1 3-2 2v1.9l-2 2-2 2-1 1-1 1v5.9l-2.9 2v3.9l3 1h4l1.9 2 2 2.9h4l.9-1 2-1 4-2 1.9-2 1-2h2l3-.9.9-1h1l.3.1 2 .7 1.6 3.2v3.9l1 2v2l-1 1h-4l-4.9 1 1 1.9v4l-2 1-2 1-.9.9-1 2v2l-3 2-2.9 1.9 1 2v1l-1 2-1 2.9v5.9l1-1 1 1v1h1l1-1 1 1v1h1l1.9 1v6.9l1 3v2.9l4-2h1l1-1 .9-2h2l2 1 2-1h1.9l1 1 2 3h2l1.9 1h3l1-2h4.9l2-1 1 2 1 2-3 2-1 2 1 1.9 1 1 2 2-2 3-1 .9v5l1 4.9 2-2v-2l.9-3 2-2.9h1l1 1 1-1 1 1v2l.9-1 1-1 1 1 1 1 4.9-2 4-3v-4l3.9-1.9 2-6h-4l-1-.9v-1l-1-1-1-1v-1h2l2.5-2.4 3.4-2.5v1l2 2 2 2-1 2v1.9l2 1h3l2-8.9 1.9-6.9v-1l-1-2v-3.9l-1-1v-3l-1-2.9-1-2-1-2v-3l-4.9-13.7v-2l1-5-1-3.9 1-2-1-1-1 1-2-3v-2.9h-1l-1-1-3.9-2h3l1-1.9-1-2h-2l-2-1-1-1h-2.9l-3-2v-.9l-2-1h-1l-.9-1h-2l-1 1-1 1-2.9 1h-2 1l1 2v7.9l-1-2v-4l-2 4-4.9 5v-3l2-4h-1l-1 1h-1l-2-1 1-1 1-1v-1l-3 3 1 1v3h-2v1l-1.9-5-3-5-6.9 3-4.9-2 2-2.9 1-2 2-3 1-2.9 1-2 .9-1 3-4.9 1-6 1-.9 1-1v-1l-1-1 1-2V383l.9-1 2-4.9 2-4 1-2v-1.9l1-1 1-2v-4.9l.9-4 2-2 1-7.8 4.9-6.9h1l1-1 1-1 1-1 4.9-2 4.9-2.9h1l1-1h1v2l2 1 1-2-1-3h3.9v-3l-3-2.9-4-2h-3.9l-3-1v-3.9l3-1-1-2v-2l1-.9-3-5-5.9-3.9-3.9 1-5 1v3l-1 3z"/>
  </g>
  <g cursor="help:opacity:1">
    <path fill="#FFEC77" stroke="#202020" stroke-width=".8" d="M773.6 418.4l2-2 1-2.9h-2l-1-1-2-1-1 1-2 1h-1l-1-1-2.9 2-4-1-1.9 2h-3l-1 1v1l-2 1-1.9 2v.9l-1 1-3-1-2.9-1v1h-4l-1 2v1l-1.9-1h-1l-2 1-3 2h-2.9l-1-1h-3l-2.9 1-4.9-1-2-2-2-2-4.9-1h-5.9l-1-1-2-1h-4l-1.9-1-2-1-2-1-3.9 1-4 2v4h1l1 2v1l2 1 3 1-2 .9h-1v2l2 2h1v-1l2-1 3-1 1.9 3 1 3h1l2-1 2 4.9-2 4.9 1 1h1l2.9 2-1 1-1 1v2.9l-1 2 3 3 2 2.9h4.9l2-1 2-1h1l.9-1 2 1 2 1 1-1 2.9 2 3 1v-1h5.9l1 1v1h1l1 1h1v1.9h.9l2 2 1 1 1 4 4.9 5.8h1v1l1 1v2l2 2 1.9 3 1 .9 1 3h1l1 1v2l2.9 4.8 4-1 3.9-1 1 1h2v1h1l1-1 .9 1v-1h1v-1l4 3 6.8 1h1l1-2 1-3 1-.9v-3l-1-3v-6.9l-1-1h-2v-.9l-1-1-1 1h-1v-2h-1l-.9 1v-5.9l1-3 1-2v-1l-1-1.9 3-2 3-2 .9-1-1-1 1-1.9 1-1 2-1 2-1V450l-1-2 4.9-1h4l1-1v-2l-1-1.9v-4l-1-2.9-3-1h-1l-1 1-3 1h-2l-1 2-1.9 2-4 2-1.9.9-1 1h-4l-2-3-1.9-2h-4l-2.9-1v-3.9l3-2v-5.9l1-1 1-1 2-2 1.9-1.9v-2z"/>
  </g>
  <g cursor="help:opacity:1">
    <path fill="#FFEC77" stroke="#202020" stroke-width=".8" d="M335.6 155v-2h-2v2l1 1-1 4 3-3v-1l-1-1zm22.7-21.7l-3-1h-3v2h-1v2l-2-1h-2.9v2l1 1h-1v1h1-1l-1 1-3 2-1.9 1.9-1-1v-1l-1-1-2 1-1.9 2-1 3v3h2v.9l1-1 1-1v1l-1 2 2 2 1-1-1 1-1 3.9 1 1 1 2h-2l-1-1v1l-1 1h-1v2l1 1.9h2l1 2v2h2v-1h.9l1 2 1 1.9 1 1v-2l1-1v2l2 3v-2l1 1h1.9l-1-3-1-3V164l1-5 1-3.9 2-3.9h1l1-2 1-2 .9-2 1 1 2-1v-1l-1-.9h1l2 1 1-1v-1h-1l-1-1 2.9 1v-2h2l-1-3-2-1.9v-1l-1-1h-3zm22.7-21.7l-2 2v1h1v1l1 1h-2l-2 1h1l1 1v1l1 1-2-1-3-1-1 1 1 1.9h-4l1 1v1h-1l-.9-1v2l1 2-1-1-2-2-2 1v2-1l-2-1-1.9 1-1 1-1-1 2 2.9 4 1v1h-6l-2 1v1h3l2 2 1 1.9 1-1v3l2 1 1-1v1l1-1 1.9-1-1-2v-2l1 3h2l1-1-1-2-1-1v-1l2 1 1 2v1l1-2 1-2-1-1v-1h1v-.9h.9v5l1-1 1-1 2-1 2-3-1-1v-1h1v2l1.9 1 1-1 1-2v-1 1l1 3 1-1v-2h1v2l1.9-1v-1l1 1 1-1v-1l-1-1h2l1-1-1 1 2-1 2.9-.9v1l1-1h1l3-1H422.3l9.9-1 3-2 1.9-3 2-1.9-1-3-5-2-5.9 2v1l-1 1h-1v-1h-12.8l-3-3-2-.9-.9 2-3 1h1v-1h-2l-2 1-1.9-1h-3l-2 1h-1.9v1h-3v2l-1 1-1-1-1-1-.9 1-1 1-2 .9v-1l-1-2zm49.3-72V37l-2-.5-1 2v3l3-2zm-10.9-8.9l-1 2.5 3 .5 1-3h-3zm10.9.4l3 1.7 1-1-2-2.1-2 1.4zm-5 4.5v.8l2-1.3h-1l-1 .5zm-1-8V27l-1-.1v2.4l1-1.5zm1 1.2l-1 .8v2l2-2v-.5l-1-.3zm6 0l1-.7-3-3.3-1 1.7 1 1.7 2 .7zm-20.7 4.3v.7l1 .6 1-1.4v-1.6h-2V33zm1-6l-2 1.4 1 1.2 1-1.1v-1.4zm-8-14.2v1.3l1 .2v2h3l2-.7 1-.2v.1l1 .2 1 2.5 1-.8v-2.2l-1-2h-2l-2 .2-1-.1-1-.2-2-1-1 .7zm15.8 4.2v-.6l-1 .3-2 .4-1 .4V20h-3.9l-3-.7v.7l1 .9h-1l-.9-.5V21.9h-1v-1.7l-2-.3-1 1.4v1.5l2-.1v1.2l-1 .6-1 .6 1 .3h1l1 .7 1-.9v.6l1 .1 1-1.5-1-1v-.2l3 .3 1 1 1-.7 1.9-.6 6-.3-1-2-2-.7V20l1-.7 1-.1 1-1v-.4h-2v-.7zm3-2.6l-1 .8 1 .3 2-.4v-1l-1-.4-1 .7zm35.5 10.4l2 1.8 1-1.6-2-1.9-1 1.7zM450 40.1l2 1.9 4 .2 2.9-2.6v-.2l1-3.3-2-1-1 1.5-1 1.2-1-.2-3 .4-1.9 2.1zm-13.8 6.3l-1-1.2-2 1.7 2 1.5 1-2zm0-7.9l-5-.6V43.2h1v-.6h1l1-.3-1-.7V41l3 .4 1-1.7-1-1.2zm4-1l-1 1V41l1 .2V41l1-.1v1l1 1.4 2.9-1 3-2.3 1-1.5V37l-1-.6h-2l-2-1.3-2-.5-2 3zm-2-5.3l1 1.5 2-.6-1-1.5-2 .6zm-2 2.6l-1-.5-1 1 1 .4 1-1zm0-8.4l-1-1.2-1-1-1-1v-1l-1 .3-1 .7 1 2.1 1 2.5 1 3 3 1.5-1-5.9zm2-.7l-1-1.2-1 .1 1 2V29l1 1.7 1 .2v-4l-1-1.2zm3 .2l1-1.2h-2l-1 1 2 .2zm6.8 8.5l2-1.9-2-.9-3 1.6 3 1.2zm-1-11.5l-1 .6v1.6l1-.6V23zm4-7.3l-2-.4V15h-1v1l-1 1 2 .8 3-1.3-1-.9zm-7.9 3.2v2.9l3 .5-1-3.4h-2zm-5 2.2v-1.2l-1 .4v2.4l2 1h3l1 .1v-.2l-1-2.6-3 .9-1-.8zM248.9 175.8h-1l-1 1h-3l-3 1-1.9-1-1-1-3 1H231l-4 2.9-1 4-.9 3.9h-1l-1 1 1-1-1-1-1-1v1h-1l-2-1-1-3-1.9-2.9-2-1-1 1v-1l1-1h2l-1-4.9-3-4-1.9 1-2 1-1 8h1l2 .9-2 3-3 3-1-1h-.9v1l-2-3-2-4-2 2-1.9 1-1-1-1-1-1 3-1 3-1 1.9-1.9 2 1 4 2 2.9-2 2-2 2v1l-1 2.9-2 3-1-1-1 1-.9 1-1 2.9-1 3-1 1.9v4h1l1 1v2l2 .9h1l1 2v1h1l1 1 1 1 .9 1 1 .9v2h3l2-1v1h.9l1 1 1 1v1l1 2h1l2 .9v2h2.9l2-1 2 3 2.9 4.9 2-1h4v4h1.9l1 3.9 4.9 1 1 2 2 2 2-1h1.9l6-2 1-2 .9-3 5-4 3.9-3.9-1-2-1-2h-1l-1 1-1-1-3 1-1 2v1H238l-1-1h-2l-1-1 1-3.9 3-4h2l3-1-1-1.9v-2l2-3v-4.9l-2-4v-3.9l6.9 2 6.9 5v3l1 .9 2-2 1 2 1.9-1h1v1l1 1 1-1h1l2 2 .9 1 1-1 1-1v-1l-1-1 1-4 1-2.9-1-1h-2l1-3 3-3.9 3-4-2-1.9-2-1h-2l-2 1v1h-2v-1l-1-1-1-2-2.9-5.9-4-5.9v-3l-4.9 4 1-2-1-1-1-1-1 1 1-1 2-1-4-7.8z"/>
  </g>
  <g cursor="help:opacity:1">
    <path fill="#FFEC77" stroke="#202020" stroke-width=".8" d="M113.8 372h-1.3l-1-1-.2 1h-.2l-.8-1H109l-1.7 1 1 2 .6 3 1.2 1 .8 1-1.3 1-1 2 .4 2.9 1 2h2.5l2.1 2h-1.7l-2.1 1-.5 4.9-.4 4-3.6.9h-3.6l.2 1 1 1-.4 1-.3 1 1 1 .6 1-3.3.9-1 3 .5 1h2l.7 1 .6 1v.9h1l-.2 1H106l.6-1 2.9 2v1h.2l1-1h.5l-.2 1 .7-1 1-1 .6 1v1l-.9 1-.4 1 1.2-1 1.2-1 2.8-2 2.8-1 .5 1-1.8-8h.6l1.2 2h2l1-6.8v-8l-2-2-1.6-1.9-1 1-1-1 1-3 1.6-2-.4-2.9-1-3 2.4-1.9-1-2-.6-2-3-1h-3z"/>
  </g>
  <g cursor="help:opacity:1">
    <path fill="#FFEC77" stroke="#202020" stroke-width=".8" d="M90 310l1.6-1 .2-2-.9-2-.9-1-5.9-3-4.6-2-1.1-1.9-.9-1H74l-2-2-3.5 6 1.3 1 2 2 .5 1.9.7 2v1l3.3 1 3.2 2H79l-.7 3.9v3l1.3.9 1.3-1 1.1 4 2.4 3.9.7-1h.9l1-3 1.5-2.9h1l1-1-.3-2v-3h1.4l1-1.9h-1.4l-1.3-1z"/>
  </g>
  <g cursor="help:opacity:1">
    <path fill="#FFEC77" stroke="#202020" stroke-width=".8" d="M84 256.6l-1 1h-4.1l-1.9-1h-2l-1.7-3-3-.9-.9 1-.3 2-.6 1h-.7l-1.4 2-1.6 1.9-.9 2h-.7l.8 1-.2 1h.6l2.5 1 1.8-1 1 1 .5 1.9 1.9 1 1.6 1 2.3 3 .3 2.9-1.3 2-.1 3 1.8-2 1.8 2 .7-1 .5-1 .6 1H83l1.1-2 2.4-1 .3-2 .4-1h1.6l2.1-1h.7l.4-1-2.3-3.9 1-2 1.6-1-1-4.9-.6-4-3.4 1h-3.5z"/>
  </g>
  <g cursor="help:opacity:1">
    <path fill="#FFEC77" stroke="#202020" stroke-width=".8" d="M151.1 269.5l-2-1h-2l1-4-1-3-3.9 1-3-2.9v-3l-3 5-1.9 5.9 1 1 1 2 1 1 2 2-2 5.8 3 4 3.9 5 4-1 1.9-2h7v-1h2.9-1v-1l1-1v-2l-2-1-2-1v-2.9h-1l-3-3-1-2-.9-1z"/>
  </g>
  <g cursor="help:opacity:1">
    <path fill="#FFEC77" stroke="#202020" stroke-width=".8" d="M124.5 339.5v-1h-3l-2.4-2-.5-3.9-2.2-1-2.6-1-1-1-1-2h-1.2l-1.5 1-2.4-1h-2.5v2l.2 2-2 2-2.2 1 .2 4 1 4.9-2.7 2-2.7 2.9h.4l.5 1 .5 2 .2 3-3.5 1.9-3.3-1-1.3 1-1.1 1h-1l-.5 1 1 2 1.4 2.9-.7 4-.2 2H90v.9l-.5 1h1.7l.6 1 .6 1 4.8-2 3.7 2 1.3-2 .7-2 1.4 1v2h3l1.7-1h1.3l.7 1h.2l.2-1 1.1 1h4.5l3 1 .5 2 1 1.9 2-1 1-1h3v-2l1-2.9 3.9-3 4.9-1 1-1 1-1v-.9l-2-4-1-3h-2l-2-.9v-2l-1-1h-1l-.9 1-1-1v-1h-1l-1-1 2-1 2-2.9-1-3-1-1h-1v-1.9h-2l-1-1z"/>
  </g>
  <g cursor="help:opacity:1">
    <path fill="#FFEC77" stroke="#202020" stroke-width=".8" d="M183.7 224h-1l-2-.9v-2l-1-1h-1v-3.9l1-2 1-3 1-2.9-3-3-2-2h-2v1l-2.9 1-4 1-1-1-.9-2h-2l-1 1v1l-2 2-2.9 1-3 2v3l-1 1v1h1l-1 1h-2l-.9.9-1 1-2-1h-3l-.9 3v2h1v1h1l1 .9v6h3l3.9.9v6l1-1 3 1v-3l.9-3 1 1-1 2v4l3 1.9 1-1h1l2.9 3v4.9l4 5 3.9-1v-1l1-1 3 1 2.9 1 1-1 1-1v2h1l1 1v2.9l3.9 1v1l1 1 2 1 1 1.9.9 2 7 5h.9l1-1 2 1h1l1-1 1-1 1.9 1 1 1.9 2-2-1-2 1-1 1-1h-3l-1-1.9v-1l2-1h2l3.9-2 2-2-1-3.9-2-1v-3h-6l-2.9-3.9-2-3-2 1h-2.9V238h-2l-1-1-1-1v-1l-1-1-1-1h-.9v-1h-2l-3 1V231l-1-1-.9-1-1-1-1-1h-1v-1l-1-2z"/>
  </g>
  <g cursor="help:opacity:1">
    <path fill="#FFEC77" stroke="#202020" stroke-width=".8" d="M102.6 304v-1l-2.4-1-2.8-1 .2 1-.6 1v1H95.6l-1.3-1-1.1 2-1.4 2-.2 2-1.6 1 1.3 1h1.4l-1 1.9h-1.4v3l.2 2-1 .9h-1l-1.4 3-1 3h-.8l-.8 1 1.1 5.8 1.8 1 .8 1 2.2 2 4 1 4.3-1 .7-1h.8l2.2-1 2-2-.3-2 .1-2h2.5l2.4 1 1.5-1h1.2l1 2 1 1 2.6 1 2.1 1 1.4-4-.2-2.9-1.2-1 .1-1h-1.4l-1-2-1.1-2-2-.9-1.8-1 .2-1 .5-2-1-1-.7-1-2.7-2.9-2.5-2 .3-1-.9-2h-1.1l-1-.9h.2z"/>
  </g>
  <g cursor="help:opacity:1">
    <path fill="#FFEC77" stroke="#202020" stroke-width=".8" d="M172.8 269.5l-2-1-2-1-1-2-1-2-.9 1-2 1-6.9-4-5-1.9-4.8 2 1 3-1 3.9h3.9l1 2 1 2 3 2.9h1v3l1.9 1 2 1h1l1 1 1-1 1.9-2 2 1 2 1 2-1 1-2 1.9-1h1v-1l-2-3h-3l1-1 1-2z"/>
  </g>
  <g cursor="help:opacity:1">
    <path fill="#FFEC77" stroke="#202020" stroke-width=".8" d="M597 330.6h-3v4h-1l-2 1-.9 1-1 1-1-1-1-1-2 1 1 1-.4.7-2.5 4.2-.9 4.3.9 2.6 1 3-1 1-1 1.9 1 1v2l-4 4.9-4.9 5h-2l-1 1v.9l-1 5 2 7.8 3 1 2 2v4h-3v1l-1 .9-1 1 2 2 2 3-1 2.9-2 2v1l-2 2.9h-1l-1-1-.9-1h-2v-2h-1l-2-1v-2.9l-1-1-2.9 1-2 1-1 2v1l-7.8 4.9-4 7.9 1 1-1 1 1 1v2l-4-2-1.9-6v-2h-2l-1 1-1 4H532l-2-1h-3l-2.9-1-3 5-2 4.9 1 1 2 2v4.9l1 1-1 1h-1l-2.9 2-4 3.9-1 3 1 1.9-1 1-1 1v2l-1 2.9v3h-.9l-3 1-3 2v1.9l1 1 2 1 2 3 2 2.9h2l4.9 4 5 3.9h3.9l1 1v2l1 1 3.9-3 4-4 1 2 1 3 3.9 2.9 4.9 3 1 3 1 1.9h1l1-1 6.8 6v1.9l1 2 1 1 2 2v1.9l-1 2h2l1-1h3.9l3-3v-1l-7-2 3-1 5-1.9-1-1-2-1v-1l-1-1v-1l3 3 4 2 11.7-12.8 14.8-21.7-1-8 1-7.8 1-2h2l-1-2-2-1v-1l-1-1h-1l-1-4.8 2-2 3-2 1 1h1l1-2 2-2 1 1v1h1l1 1h4.9l2.9-2 1-2 1 1 1 1h4.9l2-1v2l2 2h2l1.9-1 4 1 4.9-2 4.9-5.9 4 1v1h-1l1 1h2.9l2 1 1-1 2-2 1 1h.9v-6h-2l-1-6.8v-1h1v-3h1l1-1-2-2 2-2 3 1 2 1 3.9-1-1-2v-.9l-1-1-1-2v-3l-1-1.9v-2l-1-2h-9.9v-2l-.9-.9v-2l-2-1-2-2-3-1h-3.9l-3 2-1.9 1-2 1-1 3-1 2h-1.9l-4 5.9-4.9 5 1-3-2-1-1-2v-1l-2 2-1.9 1h-5v1h-1l-2.9-1-1 2-4.9 1h-2l-1-4 .9-4.1.6-1.4.5-1.4v-3l2-5.9 2-5-3-2.9-1-5 2-1.9 1-2-2-3-2-1.9v-5l-1-6.8-3-2-2.9-2 2-3 1-1-1-2.9-1-2z"/>
  </g>
  <g cursor="help:opacity:1">
    <path fill="#FFEC77" stroke="#202020" stroke-width=".8" d="M30.2 170.8h2.3-2.3zm4.4-1l1.2-1-1.2 1-1 1 1-1zm9.8 3l-5.7-1-1.3-2-1.6-1-1.2 1-1 1h.4l1 3-2.2-1-3-1 4.2 7.9 4.7 7 2.8 3.9h.9l1-1 3.5-1-.9-7-.3-2.9v-3l-.5-1H43.9l-1.1 1-1.1 1-1.8-2-.7-1.9h5.2z"/>
  </g>
  <g cursor="help:opacity:1">
    <path fill="#FFEC77" stroke="#202020" stroke-width=".8" d="M115.7 260.6l-1-2-.9-2h-1l-1.5-1-7.6 2-1-1-1-1-.8 1h-1.7l-1.5-3-2-.9-1 1-.6 1h-1.6l-1.7 1 .6 4.9 1 4-1.6 1-1 1.9 2.3 4 4 1 4 1 .6-1 .5-1 1.7-1h2l.3-1h.3l2.3 1 2.4 1h.5l.7 1 1.1-1 .3-1h2.6l1.4-1 1.2-1 .7-1 1-2-1-4-3-1.9v1z"/>
  </g>
  <g cursor="help:opacity:1">
    <path fill="#FFEC77" stroke="#202020" stroke-width=".8" d="M446 418.4h-6.9l-1 1-.9-1h-1l-2 2-1 1h-1l-1-1-1.9 1h-2l-1 2v1l1 3v2.9l1 1-1 2-1 2 1 1.9v2l-1 1-1 2 2 1.9v2l2 1h1v2l1 1 1 .9 1 1v3l1 2 2 .9.9 1-1 1-1 2v1h1v1l-1 .9 1 2v3l2 2 1 .9h1l1-1 1 1 1 1h1.9v3l4-2 3.9-3-1-3-1-2 1-1.9-1-3 1-2 1-2 2-.9v-1l-1-2 1-1 1-1-2-1.9h-3l1-4 2-2.9-1-1v-4l1-1 3-2.9 2.9-1v-1l-1-8.8-1-1-1-1 1-2h1l-1-1v-1h-4l-2.9 2-2-1-2-1-1 1z"/>
  </g>
  <g cursor="help:opacity:1">
    <path fill="#FFEC77" stroke="#202020" stroke-width=".8" d="M225 255.7l-4.8-1-2 2-4 2h-2l-2 1v1.9l1 1h3l-1 1-1 1 1 2-2 1.9-1 2-.9 3v2.9l-2 1h-4v1l-1.9-1h-1l-3 2-1.9 1 3 3.9 3 4-1 .9-2 1-2 1-4-2-1 1-1 2-1 1-.9 1 1 1 1 1 1 1.9h3.9l1 1h2l1 1 2 1v1l.9-1h2v1l-1 1.9 1 1h1v4l1 1-1 .9-1 1 3 1-1 3v2h1v.9h-1l1 3 2 1 .9-3 1-4h2l1-1 1-3.9 1.9-3h2l1 1h2l2-1 1.9-5.9 4-2 1.9 2 2 1h2l1 1v1l1 1h1.9l1.2-.8 1.7-1.2 1-3 1-1-2-2v-2.9l5-3 3-3.9-4-3-4-3.9v-1h-3l-3.9 1-3-1-3.9-2v1h-2l-2 2-2.9 2v-2l1-1-1-3v-2l-1-1.9-2-2 2-3 4-.9v-3l3-4.9-2-2-1-3v1z"/>
  </g>
  <g cursor="help:opacity:1">
    <path fill="#FFEC77" stroke="#202020" stroke-width=".8" d="M185.6 251.7l-1-1h-1v-2l-1 1-1 1-2.9-1-3-1-1 1v1l-3.9 1-1 2v1l-6.9 3-5.9 3.9 7 4 2-1 .9-1 1 2 1 1.9 2 1 2 1-1 2-1 1h2.9l2 2.9 4 2h3.9l2-2 1-1 2.9 3v2h2l3.9 1 2-1 3-2h1l1.9 1v-1h4l2-1v-3l.9-3 1-2-1-1.9-2-1-1 1-1 1h-1l-2-1-.9 1h-1l-6.9-5-1-2-1-1.9-2-1-1-1v-1l-3.9-1v-2.9z"/>
  </g>
  <g cursor="help:opacity:1">
    <path fill="#FFEC77" stroke="#202020" stroke-width=".8" d="M297.1 364.2h-5l-2.9 2-2-2-1-1h-2l-1.9-2-2-1-3 1-2.9 2v5l-1 3.9h-2l-1 1h-1v1l-.9 2-1 .9-2 2 4 3 3 2v1.9l-2 2 .5.5.5.4v2l4.9 1 5 1 1.9 1 1 1 1-1 1-1h2l2.9 1 1 1 7.9 1 7.9 1 1-1 1-1h1l1.9 1 1-1h1l-2-4-1-3h-1l-2-1-1-1-1-2.9-1.9-3-1-1-1 1-1-1v-1h-3V374l-1.9-1-2-1 .2-3.5.8-2.3 1-2z"/>
  </g>
  <g cursor="help:opacity:1">
    <path fill="#FFEC77" stroke="#202020" stroke-width=".8" d="M86 282.3v-1l-1.6-1-1.3-1h-2.8l-.6-1-.5 1-.7 1-1.8-2-1.9 2-1 1-1.7-1-.3 1-.2 1-2.5 2 1.7 3 2.3 2.9-.3 1-.5 1h.5l.3 1h-.5l-.5 1 1.9 2h3.5l.9 1.9 1 1 4.7 2 6 2.9.8 1 1 2 1.3-2 1-2 1.4 1H97v-1l.6-1-.2-1-1.8-2-.6-2h-.7l-.3-.9h-1.5v-1l.3-1-1-2-1-1-.2-2.9v-2l-2-1-2.5-1v-1.9z"/>
  </g>
  <g cursor="help:opacity:1">
    <path fill="#FFEC77" stroke="#202020" stroke-width=".8" d="M130.4 168.9l-2 1 1 1 1 1h2l1 .9h-1l-1 1v1h-1v-1 5l.7-.1 1 2h-1l-.6 1.4.5 1.3-.7 2.9-1.4-.4.5-2.2-2-2.8-1 .8-1-1-1-1-1-1-.9 1h-1v-2h-1.2l-.7 1-1.4 1h.4l-1.1 2-1.8-1-1.7 1h-1.8l1 3 .8 2 1 1.9.9 2-.7 3.9 1.5 3h1.5l2-1 1.3 1 1 2 2-1h3v1l1.9 1 2-1 2-1v1l1 1 1 1v3.9h3.9l1 1v1l2 2.9v2l1 2 1.9 2.9h3l2 1 .9-1 1-1h2l1-1h-1v-1l1-1v-3l3-1.9 2.9-1 2-2v-1l1-1h2.9l2-1-1-.9-1-4-1-1h-2l-2-1.9-2-2h-.9v1l1 2h-2l-1-1h-6.9l-1-1-2 2-2.9 1-2-3h-3l-2-1-.9-1h1l1-2 1-2 2-4.8 2.9-4v-3l-2-2.9v-3h-6.9l-5-1z"/>
  </g>
  <g cursor="help:opacity:1">
    <path fill="#FFEC77" stroke="#202020" stroke-width=".8" d="M115.3 289.2h-1.6l-1.3 1H111l-.8 1-.4 1h-2l-1.2-1-1.7-2-2.1 1-2 1-.6 2-.5 1 .1 2-.3.9-1.2-1-3.2 1 .6 2 1.8 2 2.8 1 2.4 1v.9h-.1l.9 1h1.1l1 2-.4 1 2.5 2 2.7 2.9 1.8-1 1.6-1-1-6 3.5-3.9 4.3-3-.4-1.9.3-2-2.2-1H116v-2l-.7-1.9z"/>
  </g>
  <g cursor="help:opacity:1">
    <path fill="#FFEC77" stroke="#202020" stroke-width=".8" d="M872.2 215.2h-1l-2 1h-2.9l-1-4-2-1h-2.9v2l-2 1-1 3-1 2h-1l-1.9-1-1 1-1 1-3 1-3.9 1v1.9h-3v2l1 2-1 2-1 1.9v3l2 1-2 2.9v5l2 1.9 2 1-1 2v1h1v2h-2l-1 2.9-1 2-.9 1-2 1v1l-1 1.9-3-1-3.9-2-1 2-2 2H825l-2 1 2 3-1 2.9-1 1-1-1-1 1-1 1-1.9 1h-2l-1 2.9-1 4 1 8.8 2 2 3 2v1l-1 2 1 1v1.9l-1 2v3.9l5-1 3.9-1 5.9 4 3 5.9h-1v3l1 1-3 1v4.9h6.9l4 2 2.9 2.9v3l3-1h1l2-2 1.9-2h2l3-1-1-1h-1v-2h1v-3.9l2.9-1 3-1h3.9-1v1h2v-2l3-2 2 1 1.9 1 2-1h1v1h-1l-2 2-2 1 1 3h1l2-1 2-3 1-1h1.9l2-1V311l1-2 3-1h1.9l1-1v-2h3l-1-.9h1l1-1-1-2-2-1-2 1-1 1v1l-1 1h-1v-4h-1l-1-1v-1l1-.9h-1v-6l2-3.9 1-4.9-1-1v-4l1-1.9-1-2-1-2 2-3.9 1-3h2l1-1 3.9-5.9h3l2 1 1-3v-1.9l1.9 2 1 2v3.9l1 1 1 1v1l1 1 1-1 1-1 .9 2 1 2.9 2-9.9 2-10.8h-1l-1-2-1-1v-3h-1l-1-1V237l-4-2-3-2V230l-.9-2v-2l-3-2.9-2-3v-3.9l-1.9-4-1-1-3 2-2 2H887l-3-1-2.9 2h-4.9l-1.1-.6-.9-.4h-2z"/>
  </g>
  <g cursor="help:opacity:1">
    <path fill="#FFEC77" stroke="#202020" stroke-width=".8" d="M123.5 244.8l-1 1h-1l-2 1-2.8 1-1.6 3.9-3.8 4 1.5.9h1l1 2 1 2 3 1 1 4.9-1 1-.8 2 2 3h1.6v3.9l1 1h-1l-1.5 1.9v2h1.5l2-1 1-1 .9 1h1l2-1h5.9v-1l2 1h2l2-6-2-1.9-1-1-1-2-1-1 2-5.9 3-5 .9-.9-1-2-1-2-1-.5-2-.2-2-.7-1 .8-.9.7-1-1-3-1-2.9-1-1-2-1-2zm6 13.1l.8 1.4c.3.3.4.5 1.1.4l-.3 1 .8 2.4-.4 1.6-2.5.3-1.6-1.1-1.7.9-.7-1.3-.7 1.4-2.3.1-1-1.3-1.5 1-.4-2.3 1.7-.6.5-2 1.8 2 1.3-1.3 2.7 1.2.4-2 1.2-.6.8-1.2z"/>
  </g>
  <g cursor="help:opacity:1">
    <path fill="#FFEC77" stroke="#202020" stroke-width=".8" d="M235 97.8v.5l-2 1.5-3-1.2-2-.7-1 .8-2 1-.9-1.5h-1l-2-.4v2l-3.9 2-3 4v1.9l-1 5-1 3.9-2.9 1h-4l-5.9 4.9 4 5 3 4.9v3l1 2.9 2.9-1 1 1h1l1 1v-4l1-2v-4l2 4v1h-1v5h1.9l1 4.9h-1v1l1 1h1v4.9l2 3 2.9 3.9 3 5 2 3.9 9.8 3 6-1 4.9-2 1-1v-2l2-2 1.9-3-1-1.9-1-1 1-3 1-2.9h-2v-6l-1-.9v1l-1-7v-10.8l-1-2h-1l1-1-1-1v-.9h-1.9l-1-3-1-2-2-1-2 1-1-1 2-1 2-1.9-2-1h-1 1l1-1-1-1-2-1h1l1-1-1-.9v-1l2 2 3 1-1-3-1-4v1h-3v1l-.9-1v-1l-1-2v-.9l-1 1v1h-2l-1-2.9z"/>
  </g>
  <g cursor="help:opacity:1">
    <path fill="#FFEC77" stroke="#202020" stroke-width=".8" d="M185.6 275.4l-2 2h-3.9l-4-2v1h-1l-1.9 1-1 2-2 1-2-1-1.9-1-2 2-1 1-1-1h-1v1.9l-1 1v1h1-5.9l-3 1-2.9 2-4 1v1.9h-.9v1h1l2 1v2l-1 1 2 1.9 1 1h2l1.9 1 2 6.9 2 4 1.9-1 2-1v1h1l2-1 2.9-1 1 1-1 1 1 1h2v-1l2-1h2.9l-1-2v-3l2-1 1-1 1-2-1-1 1-1.9h1l-1-2 1-2h1l.9 1 1-1 1-1 3 1 2.9 2 1-1 1-1 1-2 1-.9 3.9 2 2-1 2-1 1-1-3-4-3-3.9-4-1h-2v-2l-2.9-2.9-1 1z"/>
  </g>
  <g cursor="help:opacity:1">
    <path fill="#FFEC77" stroke="#202020" stroke-width=".8" d="M127.4 199.4v-1h-3l-2 1-.9-2-1.4-1-1.8 1h-1.6l-5 2 .7 4 1 3-.9 1h-1.2v1l-.3.9-3 1-.4 2-1.8 2 .2 1.9 1.3 2 1.4 1 5.5 2 5.4 1 2 1 .9.9 3-1 3-1 .9-1 1-1 3 2 2 3h.9l1 1 2 1 1-1h1l2 1 .9 2h1l2 1v-6l-1-1h-1v-1h-1v-2l1-3-2-2.9-1-2v-2.9l-2-2v-1l-1-1h-3.9v-3.9l-1-1-1-1v-1l-2 1-1.9 1-2-1z"/>
  </g>
  <g cursor="help:opacity:1">
    <path fill="#FFEC77" stroke="#202020" stroke-width=".8" d="M377 392.8l-2-1-2-2-1 2v1l-.9 2v2l-2 1-1 1.9 1 2v2h-4l-1.9 1-2 1.9h-2v2l1 1-2 2-1 4.9 1 2 1 2.9v1l-1 1-1 2-.9 2.9h4l1-1 1-1 1 1h2.9l-2 2-2 1 3 5.9 4 6.9 1-2 1.9-1 1 1v1l2-1h2l2.9 1h3l1-1 6.8-3 6-2v1l1 3 1 1v2h.9l1 1-1 1h-1l5 5.9 3-3 4.8-3v2h2v-2h8l.9-1 3-1.9 1-2 1-1v-2l-1-1.9 1-2 1-2-1-1v-2.9l-1-3v-1l1-1.9h-5l-1-1-1 3-2 1-.3-.4-.6-.6v-1h-1l1-1 1-1v-6.9h-3l-1 1v1l-1-1h-5.9l-.9-4-7-1-4.9-7.8-6.9-3.9 1-1-11.9-4z"/>
  </g>
  <g cursor="help:opacity:1">
    <path fill="#FFEC77" stroke="#202020" stroke-width=".8" d="M372 370.1l-7.8 3-7-2h-1.9l-1 1-3-2-2-1-1.9-1h-2v-2l1-1-1-2-1-.9-2.9 2-3 2v5.9l-2 1-1 1 1 1h3v1l.5 7-2.4.8-2-1v3h-1l-1 1v2h-1l-1 1v1l-2 .9-1 1 1 1-1 1h-1v1l1 1-1.9 1h-1v1.9l2 3-1 4.9v2h1l-3 3.9 1 2 1 1 1 1h1l1-1h1v1h1v-1l1-1v6.9l1.9-1v-1l2 1 2 2 1 1h1.9v1l-1 1-2-1-2 2.9 1 2 2-1 5 3h1l3.9-2h3l2-2h1.9l1-3 1-2 1-1v-1l-1-2.9-1-2 1-4.9 2-2-1-1v-2h2l1.9-1.9 2-1h4v-2l-1-2 1-1.9 1.9-1v-2l1-2 1-.9v-2l-1-1-1-2 1-1V384l-1-2v-4l-1-.9v-1h1v-3h1v-2.9z"/>
  </g>
  <g cursor="help:opacity:1">
    <path fill="#FFEC77" stroke="#202020" stroke-width=".8" d="M208.3 371l1-2.9h-1l-1-1v-1l-1-1-1-1v-5.9l1-2v-.9l-2-2v-2l1-1v-1h-1l-1.9-2.9-3 2-2 3-1.9 1-2 1-2 2.9-2 2h-1.9l-1 1-4 2-2.9 2.9-7.9 1v1l2 3v1.9l3 2h4.9v4.9l3 1 2 2 1 2v1.9l.9 4 1 3.9-1 1v2l2-1 1-2 1 1h1v3l1.9 2 1 1.9h3l1-1 1-1 3.9 1 4 2 .9 2v1h2l2-1 1 1 1 1h1.9l1 2.9-1 2 5 6.9h2.9l2-2 1 2v1l6.8 2.9 6-5-3-4.9-3-4h1v-.9l-1-2v-2h-1l2-3 2-.9-3-3-3-1-.9 1h-1v-2l-1-1-1 2h-2l-2.9 4-4-1v-1l-2-1h-3.9l-1-1-1-2h-1l2-4.8-1-1-1-1 2-2 2-3-3-2-1.9 3h-1l-1-4-1-2.9 1 1h1v-2l-1-1v-2.9 1z"/>
  </g>
  <g cursor="help:opacity:1">
    <path fill="#FFEC77" stroke="#202020" stroke-width=".8" d="M100 273.4l-4-1-3.9-1-.4 1H91l-2.1 1h-1.6l-.4 1-.3 2-2.4 1-1 2 1.2 1 1.7 1v2.9l2.6 1 1.8 1 .1 2 .2 2.9 1 1 .6 1.1.1.8v2H94l.3 1h.7l3.2-1 1.2 1 .3-2v-1l.4-1 .6-2 4.1-1.9v-3l.1-2-1-1-1-.9-2.2-5-.7-3.9z"/>
  </g>
  <g cursor="help:opacity:1">
    <path fill="#FFEC77" stroke="#202020" stroke-width=".8" d="M152 314.9l-1.9 2h-2l-3-6-1.9-4-1 1-1 1-3-2-1-2.9h-1.9l-1 1-1 2-1 1 1 1v2l-2 .9 1 3v4.9l-1 1-1.9 1 2 3 3 .9 1 2 1 1h1.9l1 1 1 1v1l3 1.9h1.9l1 1v2l3-1h1.9l2 1 1 1 3-2 2.9-4v-2l-1-2 1-3.9-1-4-4-1.9-3-3z"/>
  </g>
  <g cursor="help:opacity:1">
    <path fill="#FFEC77" stroke="#202020" stroke-width=".8" d="M114 186.6l-.8-2-1-3-2.1 3-2.3 2h-3.1l-1.5 2 .6 1 .5 1-1.4 3-1.4-1 .4-1 .3-1h-.6l-.2 1h-1l-.8-1-1.8 1H96v1h.4l-.1 1-1 2.9-2.3 2-2.5 1 .2 1 .1.9-2.4 3-3.3 4v.9l.8 1 1 1-.4 1-.1 1h.9l1.3 2-1.2 2.9-.8 1H88l.8 1h1.6l1.8 4.9v2l.5 1h2l1.5 2 2.5-2 2.5-2 .6-3v-2l.9-1 .9-1-.5-1h-.1l1.3-1 1.6-.9-.2-2 1.8-2 .5-2 3-1 .1-.9.1-1h1.2l1-1-1-3-.8-3.9 5-2-1.5-2.9.7-4-.9-2-1-1.9z"/>
  </g>
  <g cursor="help:opacity:1">
    <path fill="#FFEC77" stroke="#202020" stroke-width=".8" d="M100.2 334.6h-.8l-.7 1-4.2 1-4-1-2.3-2-3.2 3-4.1-1-.7 1v2h.8l.6 1h-4.3l-.3.9.3 1-.8 2-.7 1-1.7 2-2.6 1-3.2-2-3-3H61.4l-1.7-1-2.5 2-2.7 2 1.7 1 .9 1 2.9.9 2.1 1-.2 1h-.6l-.8 2-.5-1h-1l-1.8-1h-1.6l-.2 1 .4 1-1.3 1-.5 1 3 .9 4.5 2 1.2 1 .4 2-.9 1h-.7l.2.9.4 1-.4 1-.5 1 2.3 3.9h1.7l-.5 1H64l.1 2-.5 1 2 1 1.7 2 3.5-1 2.7-1 4.2 2.9 3 6.9 1.8 1 1.5-1 .5 1h.4l1.1-1 .8-2h5l.2-1h.2l2.8-3 1.4-2.9h-3l-1.7-1 .6-1-.6-1-.7-1h-1.5l.4-1v-.9h-1.6l.2-1 .7-5-1.4-2.9-1-2 .5-1h1l1.1-1 1.3-.9 3.3 1 3.5-2-.2-3-.5-2-.5-1H96l2.7-2.9 2.7-2-1-4.9-.2-4z"/>
  </g>
  <g cursor="help:opacity:1">
    <path fill="#FFEC77" stroke="#202020" stroke-width=".8" d="M136.3 279.3l-2-1v1h-5.9l-2 1h-1l-1-1-1 1-1.9 1h-1.4l-4.8 7.9.7 2v2h2.2l2.2 1-.3 2 .4 1.9 2 1h3l1 2 1 1h1.9l1-1 6 2.9h1.9l1-1v-1l1 1h2l-1-2h-2l2-1h2l.9-1 2-1v-1.9l1-2v-2l-2-1h-1l1-1v-1.9l-4-5-3-3.9h-1.9z"/>
  </g>
  <g cursor="help:opacity:1">
    <path fill="#FFEC77" stroke="#202020" stroke-width=".8" d="M190.6 337.5l-2-3-1 3-2 2h-2l-1 1-2.9-2-2-2h-2l-2-1h-.9l-2 1h-3l-1.9 5-2 3v1l1 2v1.9l1 1 2 1v3h1v2.9l1 1 1 3.9 1 3 7.8-1 3-3 4-2 .9-1h2l2-2 2-2.9 1.9-1 2-1 2-3.9 2.9-1-2-2h-1v-3l-1-.9-2-2h-1.9l-2 1-2-3v1z"/>
  </g>
  <g cursor="help:opacity:1">
    <path fill="#FFEC77" stroke="#202020" stroke-width=".8" d="M146.2 334.6l-1-1h-2l-3-2v-1l-1-1-1-1h-1.9l-1-1-1-1.9-3-1-1.9-3-4 2-5.7 2 .2 3-1.3 4 .5 3.9 2.4 2h3v1l1 .9h2v2h1l.9 1 1 3-2 2.9-2 1 1 1h1v1l1 1 1-1h1l1 1v1.9l2 1h1.9l1 3 2 3.9v1l3 5v5.8l4.9-2 1-2.9 1-3h1v1l.9 1h5l1-1 .9-2 7.9 2 2-1 2-1 1 1h1v-2l-1-3.9-1-3-1-1v-3.9h-1v-2l-2-1-1-1v-1.9l-1-3v-1l-1-1-5.9-1-3-3.9-1-1-1.9-1h-2l-3 1v-2z"/>
  </g>
  <g cursor="help:opacity:1">
    <path fill="#FFEC77" stroke="#202020" stroke-width=".8" d="M933.4 501.3l-2 1h-2v2l-1 4-1 3.9 1 1h1v-4l1-4 2-2 1-1v-.9zm6 7v-2l-1 1-1 1h2zm6.8-26.7l-1-2h-1l-1 3-1 2h-3.9v1l1 1-1 1.9-1 2v2l-1 1.9v2l-1 2 1 1 1-5 1-1 1-1v-2l2-2 1-2.9 2-2 2-2zm7-16.8l-1 1-2 5v1l-1 .9 2 1 2-7v-1.9zM961 450l-1-3v3l-1 2v1l2-3zm1-13.8v2l1-1v-1h-1zm1-14.8l-1-2 1 1v1zm-1-11.8l1 2v1l1-1-1-3-1 1zm4-18.8v-2h-1l-1 2h2zm-3 6l-2 3.9 1 1 2-2 1-3v-3l-1-1.9-1-1-1 1 1 2v3zM881.1 446l-5-6-3.9-4.9-3-4v1h-.9v-2l-2-1-2-1.9-1-5-2-5.8v-1 1h-.9l-2-2-1-2h1l1 1v1h1l-4-5-2.9-3.9v-2l-3-2-1-1v2h-1l-1 1 2 1 3 2v2-1h1v2h-1v1l1 1-1 2.9-1-1h-1l-2 1v2l1 2 1 1 2 6.8 2 7 4 2.9 4.9 4 1 2.9v4l2 2 1 1.9 5.8 17.7v1l4 3 2 4 1 2.9v4l2 2 .9 1.9 2 7.9 4 5.9.9-1v-2l-1-4.9 1-4 1 1 3-1 2 1 1.9 1 1 2 1 1-2-5-2-3.9-1 1-2-1-2-1-1.9-2-4-2.9-2.9-5-1-5.9v-4.9l-1-2v-2l1-1 1-1.9 5-1 4.9 2 2 1 1 1-2-2-3-2-2-2-1-2-5.9-5.8z"/>
  </g>
  <g cursor="help:opacity:1">
    <path fill="#FFEC77" stroke="#202020" stroke-width=".8" d="M304 296.1l-3-2-2.9-2v-2.9l-1-1v-1l-2 1v1l-3 4-1.9 3.9v2l-5 4.9-4.9 5-2 1-2 1-2.9 2.9 2 4.9-2 3v3.9l-3 3-4.9 1-1 3v1.9h-3l-1.9-2-2 2-2 3h-4.9l-2 1v1l-1 2.9-1.9 2v3h1l1 .9 4 2 2.9 2h1l1-1h2v1l4.9 3.9 4.9 3 1-1h1l2 1 1 1v1l1 1.9 2.9-2 3-1 1.9 1 2 2h2l1 1 2 2 2.9-2h4.9l-1 2h2l1-1h-1v-1l1-5 2-3.9 2-1h2.9v1h4l1.9-1v-4l1-2v-2.9l-1-1v-8.9l-3-2-3-2.9 1-3 1-3.9v-2l-1-1v-4.9l1-4 2-3.9-2-3-1-1.9-2.9-6.9z"/>
  </g>
  <g cursor="help:opacity:1">
    <path fill="#FFEC77" stroke="#202020" stroke-width=".8" d="M113.2 241.9l-3.7-1-5.3-1-3.8-5-4.1-4.9-1.4-2h-2.1l-1.3 1-2.2 2-3 3h-1.8v2l.1 1h.3l.1 1h-.9l-1 .9-.9 2-.3 3 .3 1.9v1l-1 1-1.2 1 .6 1 1 1 .3 2.9-1 1 .3 2-.4 1h2.1l1-1h3.5l3.4-1 1.7-1h1.6l.7-1 .9-1 2 1 1.5 3h1.7l.9-1 .9 1 1 1 7.5-2 3.8-4 1.7-4-1.3-1-1.5-1.9-.4-1-.3-2z"/>
  </g>
  <g cursor="help:opacity:1">
    <path fill="#FFEC77" stroke="#202020" stroke-width=".8" d="M130.4 301l-1 1h-2l-1-1-1-2h-2.9l-2-1-4.3 3-3.5 4 1 6-1.6.9-1.8 1 .8 1 1 1-.6 2-.2 1 1.7.9 2.1 1 1 2 1 2h1.5l-.2 1 1.3.9 5.2-1.8 4.5-2.1 2-1 1-1v-5l-1-3 2-.9v-2l-1-1 1-1 1-2 1-.9-5-3z"/>
  </g>
  <g cursor="help:opacity:1">
    <path fill="#FFEC77" stroke="#202020" stroke-width=".8" d="M133.3 222.1l-3-2-.9 1-1 1-3 1-2.9 1-1-1-.6-.3-1.3-.7-5.4-1-5.5-2-1.4-1-1.3-1.9-1.6 1-1.3 1 .6 1-1 1-.8 1v2l-.6 1.9-2.6 2-2.4 3 4.1 4.8 3.8 5 5.3 1 3.7 1 .3 2 .4 1 1.5 1.9 1.4 1 2.6-1 2.1-1h1l1-1 1 2 1 2 3 1 2.9 1 1 1 1-1 1-1 2 1 1.9 1h1l1 1.9v2l3-4 2.9-1-1-2v-3.9l1-2v-2l2-1h1l1-.9-1-1 1.9-1h2l1-5.9-4-1h-3v-.8l-2.9-1-1-1.1-2-1h-1l-1 1-2-1-.9-1h-1l-2-3z"/>
  </g>
  <g cursor="help:opacity:1">
    <path fill="#FFEC77" stroke="#202020" stroke-width=".8" d="M424.4 359.2l-2-1h-3l-1-2-1-1.9-3.9 1h-4l-1.9-2v-2h-2l-2 1-1-1-1-1-3.9-1-4-.9-.9-1h-1l1 3-1 2h-1l-1 1-1 3.9-2.9 5h-6l-3.9 3.9-4 3.9v3h-.9v3h-1v.9l1 1v4l1 2v1.9l-1 1 1 2 1 1 2 1.9 2 1 11.8 4-1 1 6.9 3.9 5 7.9 6.8 1 1 3.9h6l1 1v-1l.9-1h3v6.9l-1 1-1 1h1v1l1 1 2-1 1-3 .9 1h7l1.9-1 1 1h1l1-1 2-2h.9l1 1 1-1h6.9l1-1 2 1 2 1 2.9-2h4l.9-3 2-3.9h2l1-1v-2h1l.9-1-3-4.8-3.9-4v-3l1-2.9 3-2 2-1-2-3-3-1-1-1.9v-3l-2-2h-1l-1-.9v-1l-2-1-3.9-1-3-1-3.9 1-4-2v-12.8l-2.9-1-3-2-2 1-2.9 2h-1l-1 1-2-1h1z"/>
  </g>
  <g cursor="help:opacity:1">
    <path fill="#FFEC77" stroke="#202020" stroke-width=".8" d="M114.4 270.5h-1.6l-.3 1-1 1h-.8l-.5-1-2.4-1-2.3-1h-.3l-.4 1h-2l-1.6 1-.5 1-.7 1 .7 4.9 2.2 3.9 1 1 1 1-.2 2 .1 2.9 1.7 2 1.3 1h1.9l.4-1 .8-1h1.5l1.3-1h1.6l4.8-7.9v-2l1.4-2h1l-1-1v-3.9H120l-2-3h-1.2l-1.4 1h-1z"/>
  </g>
  <g cursor="help:opacity:1">
    <path fill="#FFEC77" stroke="#202020" stroke-width=".8" d="M337.6 344.4l-4 1-1 1v1h-2l-2-1h-4.9l-1-1h-1l-1.9 1-1 2h-3l-3-1v2l-.9 1v4l-2 .9h-4v-1H303l-2 1-2 4-.9 4.9v1h1l-1 1h-2l-1 3v2.9l2 1 2 1v3.9h3v1l1 1 1-1 .9 1 2 3 1 2.9 1 1 2 1h1l.9 3 2 3.9h1v-1l1 1v1h1l1.9 1 2 1.9 1 2h2l1-1v-2h.9l2-1-1-1v-1h2v-1l-1-1 1-.9 2-1v-1l1-1h1v-2l.9-1h1V383l2 1 2.4-.8-.5-7v-1h-3l-1-1 1-1 2-1v-6l3-2 3-1.9 1 1 1 2-1 1v2h2l1.9 1 2 .9 3 2 1-1h1.9l6.9 2 7.9-3-2-2h-3l-1-1-1-1-2.9-2-2-.9v-2l1-3h-2l-2-2 1-.9v-1l-1-1h-.9l-1-4-2-2.9-1-1h-1l-1-1-2.9-1h-3l-1-1-1-1.9h-1.9l-1 1-2 3z"/>
  </g>
  <g cursor="help:opacity:1">
    <path fill="#FFEC77" stroke="#202020" stroke-width=".8" d="M178.7 324.7l-1-2-3.9-1v-2l-3-1.9-2-3-3.9 6-2-1H159l1 4-1 3.9 1 2v2l-3 3.9-3 2 3 4.9h6l1 1v1l1.9-3 2-5h3l2-1h.9l2 1h2l2 2 2.9 2v-1h3l2-3 .9-2-2-2.9v-3l-1-2h-4.9l-2-1.9z"/>
  </g>
  <g cursor="help:opacity:1">
    <path fill="#FFEC77" stroke="#202020" stroke-width=".8" d="M255.7 352.3v3l-2 4 1 1 1 1h-4l-1 1h-1l-2-1-.9 1.9-1 1h-1v-2l-1-1-2 1v-2l1-1-3-3-2.9 1-1 1v1h-1v1l2 7v1h4v1l1 .9h10.9l-2 3-3 3-1 1.9-1-1-1-1-1 1H240l-3 5-3 4.9-1 1-1.9 2v1.9h-1v1l1 1v2h1l1-1 3 2 3 2-2 1.9-2 2h1l3.9 1 4-1 1-3v-2l1-1h.9l1-1h1l4 2 2.9 2-2-4-2-3 2-1.9h2l-2-1-2-2h1l1-1 1-1-1-.9h4v1l1 1 2.9 1 2 1v1l1 1 1-1h2.9l3 1v-2l-1-1 2-2v-2l-3-2-4-3 2-1.9 1-1 1-2v-1h1l1-1h2l1-3.9v-5l-1-1.9v-1l-1-1-2-1h-1l-1 1-5-3-4.9-3.9v-1h-2l-1 1z"/>
  </g>
  <g cursor="help:opacity:1">
    <path fill="#FFEC77" stroke="#202020" stroke-width=".8" d="M157 238l1-1-3-1-1 1 1 1h2zm7 .9h-1l-1 1-3-2v4l-1 3-2 1.9v-3l-3 1-1-1 1-1h1l-1-5.9h-1.9l-2 1 1 1-1 1h-1l-2 1v2l-1 2v4.9l1 1-2.9 1-3 3.9v4l3 2.9 3-1 5.9-2 5 2 5.8-4 7-3v-1l1-1.9-4-5V242l-3-3z"/>
  </g>
  <g cursor="help:opacity:1">
    <path fill="#C300FF" stroke="#202020" stroke-width=".8" d="M813 494.4h-2.9l-1-1h-2l-3-3-1-1h-1.9l-2 1-2-1h-1.9l-1 2-1 1h-1l-3 2h-1l-.9 1-1 3-1 2v3.9l1 1 2 2v1.9l1 2 1 1 1 1 2 1 1.9-1h1l6-3h1.9l1-2v-2l2-1 2-2h1.9l2-3.9 3-2h3.9l3-2-1-1.9-1-2-2 1h-4l-2 2z"/>
  </g>
  <g cursor="help:opacity:1">
    <path fill="#006989" stroke="#202020" stroke-width=".8" d="M305 165.9h-5l-3.9 4 1 3.9 5 1h1l1-1h.9l1-1v1l-1 1h1l1-1v-4l-2-4zm45.4 22.7l2 1v3l3 1.9 1.9-3-1-3-1-2.9v-2l-1-2h-2v2h-2v5zm-27.6-1l-3-1-4-1-4.9 1 1 1v2h-2l-1-1v-1l1-1-3-1H303l-1-1-5.9 1-5.9-1-1-1v-1 2h-1v3l-1-2-2-1-1-1-3.9 3-4 4-4.8-2-4-3 1-3 1-2-1-1.9-1-2 4-2 3-1 4.9 3 1-1 1-1v-1h1v-5.9l-3-3.9-4-3-1-2.9-1-1v7.9l-5.9 5-5 3.9v5.9l-3.9 3-2 2v2.9l4 6 3 5.8 1 2 1 1v1h2v-1l1.9-1h2l2 1 2 2h6.8l8 1 1.9-1 1-1 1 1v1l2-1h1.9l5 4 5.8 4.8 29.6 17.8 1 1 1 1 6-1 6.8-2v-1l1-2 1 1h1l2-1 2-1 2-1 1.9-1 1-.9h2l2 1 1.9-3v-2l-1-1-2-2.9 1-1 1-1 2-2v-2l-3-4.8-4-4-4.9-4-1-1-1-.9-1 1-.9 1-1-1h-1l-1 1v5.9l-1 6-1-1h-1l-1.9 1-2-1h-1l-1 1.9-2.9 1-1-2 1-2 2-1h1v-2l-1-1.9h1l-7-1-5.9 1-2-3-5.9-2-3.9 1v1l-1 1-1-2h-2l-1 1h-1l1-1v-2l-1.9-.9h-2l1-1v-1h2l2 1 1-2 1-2h1l.9-1v-1h-1 4z"/>
  </g>
  <g cursor="help:opacity:1">
    <path fill="#006989" stroke="#202020" stroke-width=".8" d="M384 308l-2-3-5 1-5-1v-7l-1.9-.9-1-3v-3l1-1.9 1-1-2-2h-1l-1-1v-1h-2l-1 1h-.9l-3-1-2 1-1.9 1-3-3-2-2.9 2-1 1-1-2-1-1-1-2.9-1.9-3-1h-1l-1 1-1-1v-1h-1.9l-2 1-1-1h-2.9l-1-2 1-2-3-.9-1-2 1-2h2l1-2.9 2-3v-1l-1-1v-2.9l-1-3-2 1-3 1v1l-1 .5-1 .5-1.9 1-2 1-1-2v-1h-2l-1.9 1h-1l-1 1-2 1-1 1-.9 5.9-4 4-3.9 3.9-2 4-2 4.8v1h1l-1 2h-2l-.9 3-1 2v1l1 1v2.9l3 2 3 2 2.9 6.8 1 2 2 3-2 3.9-1 4-1 2v2.9l2 1v2l-1 3.9-1 4 3 1.9 3 2v10.9l.9 1 3 .9h3l.9-2 2-1h1v1h5.9l2 1h1l1-1 1-1 3.9-1 2-3 1-.9h1.9l1 2v1h4l2.9 1 1 1 1 1h1l2 2.9.9 4h1l1 1-1 .9v1l2 2h1v3l-1 1.9 3 2 2.9 1 1 1 1 1h3l1.9 1.9 4-4 3.9-3.9h5.9l3-5 1-3.9 1-1h1l.9-2-.5-1.4-.5-1.5h1l1 1 4 1 3.9 1 1 1 1 1 2-1h1.9v2l2 1.9h4l3.9-1v2l1 2h3.9l1 1 2 1 1-1h1l2.9-2 2-1 3 2 1.9 1 8.9-2 5.9-4-1-2-4-2-1-6.8-2-4-1.9-2h-4l-1.9-2.9-2-3h-4l-2.9-3v-2.9h-1l-4.9 2-5 2-2-1-1.9-1h-6.9l-2-2-1-4-4.9-2.9-4-3-4.9-1-2-1-1.9-1.9-.5-1.6-.5-1.4z"/>
  </g>
  <g cursor="help:opacity:1">
    <path fill="#006989" stroke="#202020" stroke-width=".8" d="M870.3 135.3h-1l-1 3 4 2 2-1 1.9-2-1-1-1-2h-2l-2 1zm27.6-62.6l-3 2V76l-1 .6-1 .8-1 4.2 1 4.4 1 2.3 2 1.1 1 .5 2-5.4 3-1.6 1-1v-1.1l1.9-4.3-1-4.2-2 .3H898zm67 20.5l-1 1.6-.9 1-1 1 1 .2 1-.7 2 .5 2 .8v2.2h2l1.9 1h-2v2h-1l-1-1-1 1h-3v-2l-1.9-1-4-2.9-1-.2h-.9v2.1l-1-.3v-.4l-1-1.3-2-1-2 .6-.9 1 3 .5-1 1-2 1.9-1-2-1-1-1 .8-2 1.2-1-1-1-.2-2.9 1.2-3 2-1-1h-.9l-2 1-2 1-1-1-1.9-1-3 1-3 2h-4.9l-1 1-2 1v-1h1v-1h-1l-1.9 1-1 1-2 .9h-2l-1 1-2.9 1-3 1h-1v2l-.9-1h-1l-4 4.9-1 1-1.9 2h-2l1 1v1h-2l-2 .9-1 1-1.9 1-3 2-2.9 1 1 1 1 .9 1 2v3h2l1-1 4.9 3 1 4.8-1 2v2h-3l-2-2-3 1-2.9 1-2-2-5-2-.9 1v5l-2 2h-2l-2 1-.9 1-2 1.9-3 1-1.9-1v1l-1 1-1 1h-1l-1 2v.9l-1 1-1 1 1 2 1 1h1l1 1 1 1.9h1l2 1v2l2 3 1 1.9-2 1-1 1-7 7.8-4.9 7 1 1 1 1-1 1.9v2l6 4 5.9 1.9v1l-1 1 2 4 2 2.9h2.9l2 1 1 4h2.9l2-1h3l1.9 1h5l2.9-2 3 1h4.9l2-2 3-2-1-2 1.9-2 1-1 2-1h3v-1l3.9-2h1l2-.9 1.9-2 1-1 2-1h2l1 1 2.9-1 3-1h2l.9 1h5l1 5 .9 6 4-1h3.9l4 1 2.9.9h1l1-1h1l1-1v-3h1l1.9-2 9.9-10.8 1 1 2 1 1.9-1h2v1l1 1 1-3v-3.9l2-6 1.9-5.8h-2v-1l-1-1h1v-1l2 2 5-3 4.9-3-1-1V164l-3-1-3-1v-2l-3 1-2.9-1-4.9-2.9-6-3-1 3-3.9 1-2-2-1-1-.9 3v1h-2v2l-1-1 1-1h-4v1l1 2-1.9 1-1 1 1-2 1-1v-1l-1-2h1l5.9-3-1-1v-1h4l4-2.9 1.9-5.9-1-6-2-5.8h-3l-3.9-1-1-3 1-2h-1l-1-1 2-1 1 1v-3.9l2 3 1 3h2l1-1h1l1.9 3.9 1-1 1-1 2-5 1.9-2.9 2-1 3-1 2.9 2 2 1 4-1 2.9-2 1-1 1-1 2.9 1 3-1v-1.9l-1-1v-1l2 2 1 1 1-2-2-2h1l1-1v-1h-2l-2 1-1-1-1-1v1h-1l1-2v-3.9l-1-1-1-1-2-1h-4.9l2-.9 2-1 2-1.7 1-2.1v-.7l-2 .3-2-.7 2-.7 3-1.8-2-1.3-1-1v-5.6l-1 .3-1 .8-1 .2-1 .1-3 .8-2 .7h-7.9L970 89l-1 2.5-1 .8v-.1.3l1 .8v.8l-2-.6-1-1-1 .8z"/>
  </g>
  <g cursor="help:opacity:1">
    <path fill="#006989" stroke="#202020" stroke-width=".8" d="M426.3 165.9v-1h-2l-4.9 2v3l4 1 3-1v-4zm12.9 24.7v-4l1-3v-2l-1-1-1 3-1 5-3 3-4.9 1-1 1h-1l-1 1.9-1 1-1 1-1 1v1l1 1v1l-1 1.9 1 4v3.9l-2.9 3-2 1.9-1 3-1 2-1 2v3.9l-1 2-.9 2.9h3l1 1 1 1 2-1h1.9l6 4 2.9 5.8v1l-1 1 1 3v3h-2l-3 1.9-1 3 4 4 3 1.9h-2l-2-1-2 1h-1v-3l-1-2v-1l1-2v-1.9l1-1 1-1h-1v-1l1-1v-3.9l-1-2V238h-10.9l-1.9 3-1 2v2.9l-2 6.9-2 2-2.9 1-1 3-2 1.9-3 1-2.9 2-2-1-1 1-1.9 3h-3v-1l-1-1-3.9-1-3-2-2-1-1-2-.9-3v-2.9l4 2 4.9 2-1 1h-2v1l3 1.9h4v-2l1-2h.9l2-1 1-1h1v-1.9l3.9-2 4-2 1-2.9v-2l2.9-2 2-3-2-3.9-1-5.9 3-4.9 2-5 1.9-5.9 1-1 1-1 3-5.8-1-5v-5l3.9-3.9 6-9.8v-3l-2-3-5-2-2-.9-2-1h-1l1-1h-1v-1l-4.9 6-4.9 6.9-7.9 5.9-5.9 3h1l-1 2h-1l-1 1.9h2l1 1-2 3-2 3.9v2l-1 2-1-1h-1l-1.9 2-1 2.9v1l1-1h1l1 2 1 2h1v1.9l-1 1v4.9l2 2v1l-6 6.9h-2l1-1v-1l-1-1-1-1-1-6.9-1.9-3-3-3.9h1l2 2v2-1l-2-4-4-3-1.9 1-1 2h-1l2 3 1 2v2l-2 1.9-2 2-1 4 2 2.9 1 3-4 2-4.9 2.9-1 1-1 2h-3.9l-4 1h-2.9l-2 1.9v1l-3 1-2.9 2v1l-2-1h-2.9l1 2.9v3l1 1v1l-2 1.9-1 4h-2l-1 2 1 1.9 3 1-1 2 1 2h3l1 1 2-1h1.9v1l1 .9 1-1h1l3 1 2.9 2 1 1 2 1-1 1-2 1 2 2.9 2.9 3 2-1 2-1 2.9 1h1l1-1h2v1l1 1h1l1.9 2-1 .9-1 2v3l1 2.9 2 1v6.9l5 1 4.8-1 2 3 1 2.9 2 2 2 1 4.9 1 4 2.9 4.9 3 1 3.9 2 2h6.9l1.9 1 2 1 5.9-2 4-2h1v3l2.9 3h4l2 2.9 1.9 3h4l1.9 2 2 3.9 5-4 2.9-4 1-1.9v-1l1-1 1-2-2-1-1-1v-1.9l1-1h2l3.9-5.9 1-6-1-2.9-2 1-2-1-1-2h-2l-1-3h1l1-1.9v-6.9l-3-1-.9-3v-6.8l1-4-1-5-1-2.9-1-1v-1l2-2v-.9l-1-1v-4l4-2 2-4.8 1-7 1-4.9-1-1-1-1v-1l-1-1-2 2h-3l-2-2-3-1.9-.9-3-1-2V230l2-1v-1l1-1 4-2 1.9-1.9 2 1h2l1-5v-5.9l-2-1-2-2v-3.9h3l2-2v-2.9l-2-2-2-2-1-2-1-1.9h-3l-3 2h2l1 2v2l-4-1-.9-3-4 1-1 4 1 3.9 2 3h2l2 1.9-1 5-1-2-1-2-5.9-3-5-4 1-1 2-3.9-1-2 3-2.9 2-3zm10.8 2l1-1v-2l-1-1-5 2 4 2h1zm-9.8-14.9l-4-1 1 3h1l1-2h1zm4.9-4.9l1 1 1-1-2-1-1 1h1z"/>
  </g>
  <g cursor="help:opacity:1">
    <path fill="#FF323D" stroke="#202020" stroke-width=".8" d="M130.2 259.3l-.7-1.4-.8 1.2-1.2.6-.4 2-2.7-1.2-1.3 1.2-1.8-2-.5 2.1-1.7.6.4 2.3 1.5-1 1 1.3 2.3-.1.7-1.4.8 1.2 1.6-.8 1.6 1 2.5-.2.4-1.6-.8-2.5.3-1c-.7.2-.8 0-1.2-.3z"/>
  </g>
  <g cursor="help:opacity:1">
    <path fill="#FF323D" stroke="#202020" stroke-width=".8" d="M129 183l-1.4-2-.9 1 1.2 2-.7 2.2.3 2.3 1.2.7 1.5-.3.5-1.7.8-1.5 1-1.4.3-1.7-.5-2.5-1-1.6-.9.4-.3 3.7-1 .5z"/>
  </g>
  <g cursor="help:opacity:1">
    <path fill="#FF323D" stroke="#202020" stroke-width=".8" d="M5 342.8l-2.4-1.6-.8-3.7 3-1.4.3 7z"/>
  </g>
</svg>
