<svg width="19" height="10" viewBox="0 0 19 10" fill="none" xmlns="http://www.w3.org/2000/svg">
<path d="M17.9907 9.99591C17.8591 9.99667 17.7287 9.97147 17.607 9.92176C17.4852 9.87204 17.3744 9.79879 17.2811 9.7062L9.99506 2.41341L2.70906 9.7062C2.52086 9.89432 2.26561 10 1.99945 10C1.7333 10 1.47804 9.89432 1.28984 9.7062C1.10164 9.51808 0.995911 9.26294 0.995911 8.9969C0.995911 8.73086 1.10164 8.47572 1.28984 8.2876L9.28545 0.295506C9.37836 0.20187 9.4889 0.12755 9.61069 0.0768312C9.73248 0.0261127 9.86312 0 9.99506 0C10.127 0 10.2576 0.0261127 10.3794 0.0768312C10.5012 0.12755 10.6118 0.20187 10.7047 0.295506L18.7003 8.2876C18.794 8.38047 18.8683 8.49096 18.919 8.6127C18.9698 8.73444 18.9959 8.86502 18.9959 8.9969C18.9959 9.12878 18.9698 9.25936 18.919 9.3811C18.8683 9.50284 18.794 9.61333 18.7003 9.7062C18.6069 9.79879 18.4961 9.87204 18.3744 9.92176C18.2526 9.97147 18.1222 9.99667 17.9907 9.99591Z" fill="black"/>
</svg>
