<svg version="1" xmlns="http://www.w3.org/2000/svg" width="804" height="402" viewBox="0 0 804 402">
	<g fill="#6495ed40">
		<path d="M73 164h256c5 0 9-1 13-5 3-4 5-8 5-13s-2-9-5-13L214 5c-4-3-8-5-13-5s-9 2-13 5L60 133c-3 4-5 8-5 13s2 9 5 13c4 4 8 5 13 5z"/>
		<path d="M329 238H73c-5 0-9 1-13 5-3 4-5 8-5 13s2 9 5 13l128 128c4 3 8 5 13 5s9-2 13-5l128-128c3-4 5-8 5-13s-2-9-5-13c-4-4-8-5-13-5z"/>
	</g>
	<g transform="translate(402)">
		<path fill="#6495ed" d="M73 164h256c5 0 9-1 13-5 3-4 5-8 5-13s-2-9-5-13L214 5c-4-3-8-5-13-5s-9 2-13 5L60 133c-3 4-5 8-5 13s2 9 5 13c4 4 8 5 13 5z"/>
		<path fill="#6495ed40" d="M329 238H73c-5 0-9 1-13 5-3 4-5 8-5 13s2 9 5 13l128 128c4 3 8 5 13 5s9-2 13-5l128-128c3-4 5-8 5-13s-2-9-5-13c-4-4-8-5-13-5z"/>
	</g>
</svg>
