<svg version="1" xmlns="http://www.w3.org/2000/svg" width="804" height="402"><path d="M73 164h256c5 0 9-1 13-5 3-4 5-8 5-13s-2-9-5-13L214 5c-4-3-8-5-13-5s-9 2-13 5L60 133c-3 4-5 8-5 13s2 9 5 13c4 4 8 5 13 5zm256 74H73c-5 0-9 1-13 5-3 4-5 8-5 13s2 9 5 13l128 128c4 3 8 5 13 5s9-2 13-5l128-128c3-4 5-8 5-13s-2-9-5-13c-4-4-8-5-13-5z" fill="#D9D9D9"/><path fill="#32CD32" d="M475 164h256c5 0 9-1 13-5 3-4 5-8 5-13s-2-9-5-13L616 5c-4-3-8-5-13-5s-9 2-13 5L462 133c-3 4-5 8-5 13s2 9 5 13c4 4 8 5 13 5z"/><path fill="#D9D9D9" d="M731 238H475c-5 0-9 1-13 5-3 4-5 8-5 13s2 9 5 13l128 128c4 3 8 5 13 5s9-2 13-5l128-128c3-4 5-8 5-13s-2-9-5-13c-4-4-8-5-13-5z"/></svg>