<svg width="19" height="10" viewBox="0 0 19 10" fill="none" xmlns="http://www.w3.org/2000/svg">
<path d="M17.9907 0.00408745C17.8591 0.00332731 17.7287 0.028527 17.607 0.0782424C17.4852 0.127958 17.3744 0.201212 17.2811 0.293802L9.99506 7.58659L2.70906 0.293802C2.52086 0.105684 2.26561 2.34249e-07 1.99945 2.34249e-07C1.7333 2.34249e-07 1.47804 0.105684 1.28984 0.293802C1.10164 0.48192 0.995911 0.737061 0.995911 1.0031C0.995911 1.26914 1.10164 1.52428 1.28984 1.7124L9.28545 9.70449C9.37836 9.79813 9.4889 9.87245 9.61069 9.92317C9.73248 9.97389 9.86312 10 9.99506 10C10.127 10 10.2576 9.97389 10.3794 9.92317C10.5012 9.87245 10.6118 9.79813 10.7047 9.70449L18.7003 1.7124C18.794 1.61953 18.8683 1.50904 18.919 1.3873C18.9698 1.26556 18.9959 1.13498 18.9959 1.0031C18.9959 0.871218 18.9698 0.740641 18.919 0.618903C18.8683 0.497164 18.794 0.386673 18.7003 0.293802C18.6069 0.201212 18.4961 0.127958 18.3744 0.0782424C18.2526 0.028527 18.1222 0.00332731 17.9907 0.00408745Z" fill="black"/>
</svg>
